{"glyphs":{"0":{"ha":826,"x_min":0,"x_max":0,"o":"m 413 -21 b 782 438 633 -21 782 136 b 413 896 782 739 632 896 b 44 438 193 896 44 739 b 413 -21 44 136 192 -21 z m 413 174 b 260 438 329 174 260 224 b 413 701 260 651 329 701 b 567 438 496 701 567 651 b 413 174 567 224 496 174 z "},"1":{"ha":679,"x_min":0,"x_max":0,"o":"m 78 0 l 638 0 l 638 179 l 465 179 l 465 875 l 264 875 l 257 843 b 147 763 244 788 214 768 l 85 757 l 85 597 l 250 597 l 250 179 l 78 179 z "},"2":{"ha":756,"x_min":0,"x_max":0,"o":"m 697 624 b 393 896 697 803 568 896 b 72 569 203 896 74 790 l 281 569 b 389 714 283 669 321 714 b 485 624 456 714 485 674 b 63 58 485 438 63 432 l 63 0 l 707 0 l 707 186 l 303 186 b 697 624 392 317 697 381 z "},"3":{"ha":776,"x_min":0,"x_max":0,"o":"m 363 372 b 515 258 478 372 515 324 b 399 147 515 189 468 147 b 263 279 326 147 272 176 l 58 279 b 399 -21 67 96 188 -21 b 728 246 585 -21 728 78 b 558 457 728 349 676 421 b 706 672 661 497 706 576 b 411 896 706 817 589 896 b 72 601 207 896 81 786 l 276 601 b 394 726 278 696 331 726 b 493 635 464 726 493 686 b 383 538 493 579 460 538 l 282 538 l 282 372 z "},"4":{"ha":817,"x_min":0,"x_max":0,"o":"m 449 0 l 657 0 l 657 178 l 794 178 l 794 351 l 657 351 l 657 875 l 449 875 l 35 350 l 35 178 l 449 178 z m 265 351 l 449 597 l 449 351 z "},"5":{"ha":799,"x_min":0,"x_max":0,"o":"m 94 338 l 285 338 b 407 410 307 390 354 410 b 536 288 492 410 536 361 b 406 160 536 214 492 160 b 285 253 340 160 294 190 l 63 253 b 417 -21 100 63 225 -21 b 750 290 610 -21 750 104 b 460 583 750 458 639 583 b 304 536 394 583 346 567 l 328 694 l 685 694 l 685 875 l 165 875 z "},"6":{"ha":785,"x_min":0,"x_max":0,"o":"m 567 896 b 60 335 206 767 60 547 b 403 -21 60 119 210 -21 b 744 294 588 -21 744 110 b 471 576 744 456 624 576 b 279 486 400 576 333 550 b 654 722 332 611 461 661 z m 406 417 b 538 289 479 417 538 367 b 403 158 538 211 479 158 b 271 289 326 158 271 211 b 406 417 271 367 332 417 z "},"7":{"ha":706,"x_min":0,"x_max":0,"o":"m 42 694 l 453 694 b 171 0 294 536 181 278 l 385 0 b 685 708 397 356 475 515 l 685 875 l 42 875 z "},"8":{"ha":815,"x_min":0,"x_max":0,"o":"m 407 -21 b 749 243 621 -21 749 90 b 611 456 749 338 697 413 b 721 644 681 501 721 568 b 407 894 721 786 604 894 b 94 644 210 894 94 786 b 203 457 94 568 135 501 b 67 243 118 413 67 338 b 407 -21 67 90 193 -21 z m 407 533 b 310 631 339 533 310 575 b 407 728 310 686 340 728 b 506 631 474 728 506 686 b 407 533 506 575 475 533 z m 407 146 b 282 257 322 146 282 193 b 407 368 282 321 321 368 b 533 257 492 368 533 321 b 407 146 533 193 492 146 z "},"9":{"ha":785,"x_min":0,"x_max":0,"o":"m 218 -21 b 725 540 579 108 725 328 b 382 896 725 756 575 896 b 40 581 197 896 40 765 b 314 299 40 419 161 299 b 506 389 385 299 451 325 b 131 153 453 264 324 214 z m 379 458 b 247 586 306 458 247 508 b 382 717 247 664 306 717 b 514 586 458 717 514 664 b 379 458 514 508 453 458 z "},"\u0000":{"ha":0,"x_min":0,"x_max":0,"o":""},"\r":{"ha":0,"x_min":0,"x_max":0,"o":""}," ":{"ha":250,"x_min":0,"x_max":0,"o":""}," ":{"ha":250,"x_min":0,"x_max":0,"o":""},"A":{"ha":925,"x_min":0,"x_max":0,"o":"m 678 0 l 911 0 l 600 875 l 322 875 l 14 0 l 242 0 l 296 169 l 624 169 z m 351 343 l 460 681 l 568 343 z "},"B":{"ha":786,"x_min":0,"x_max":0,"o":"m 63 0 l 439 0 b 751 263 650 0 751 110 b 583 458 751 332 722 417 b 717 643 682 499 717 572 b 413 875 717 769 633 875 l 63 875 z m 390 715 b 500 622 460 715 500 688 b 382 521 500 550 465 521 l 278 521 l 278 715 z m 414 368 b 535 263 490 368 535 333 b 411 160 535 194 489 160 l 278 160 l 278 368 z "},"C":{"ha":914,"x_min":0,"x_max":0,"o":"m 667 344 b 461 174 643 231 575 174 b 242 438 331 174 242 285 b 461 701 242 590 329 701 b 664 531 572 701 642 642 l 885 531 b 461 896 831 818 635 896 b 26 438 199 896 26 703 b 461 -21 26 172 207 -21 b 885 344 635 -21 829 49 z "},"D":{"ha":892,"x_min":0,"x_max":0,"o":"m 63 0 l 336 0 b 864 438 646 0 864 156 b 336 875 864 719 646 875 l 63 875 z m 363 188 l 278 188 l 278 688 l 363 688 b 649 438 535 688 649 589 b 363 188 649 286 535 188 z "},"E":{"ha":700,"x_min":0,"x_max":0,"o":"m 63 0 l 660 0 l 660 181 l 278 181 l 278 354 l 639 354 l 639 535 l 278 535 l 278 694 l 660 694 l 660 875 l 63 875 z "},"F":{"ha":689,"x_min":0,"x_max":0,"o":"m 63 0 l 278 0 l 278 333 l 646 333 l 646 514 l 278 514 l 278 694 l 667 694 l 667 875 l 63 875 z "},"G":{"ha":946,"x_min":0,"x_max":0,"o":"m 471 510 l 471 336 l 686 336 b 483 174 664 221 596 174 b 242 438 340 174 242 264 b 468 701 242 593 331 701 b 660 579 563 701 633 654 l 888 579 b 468 896 824 807 656 896 b 26 438 210 896 26 725 b 465 -21 26 153 219 -21 b 899 342 693 -21 850 103 l 899 510 z "},"H":{"ha":897,"x_min":0,"x_max":0,"o":"m 63 0 l 278 0 l 278 344 l 619 344 l 619 0 l 835 0 l 835 875 l 619 875 l 619 532 l 278 532 l 278 875 l 63 875 z "},"I":{"ha":354,"x_min":0,"x_max":0,"o":"m 69 0 l 285 0 l 285 875 l 69 875 z "},"J":{"ha":693,"x_min":0,"x_max":0,"o":"m 639 875 l 424 875 l 424 288 b 328 167 424 207 392 167 b 228 303 268 167 221 201 l 24 303 b 333 -21 15 88 142 -21 b 639 294 519 -21 639 81 z "},"K":{"ha":824,"x_min":0,"x_max":0,"o":"m 63 0 l 278 0 l 278 411 l 578 0 l 843 0 l 492 457 l 804 875 l 564 875 l 278 486 l 278 875 l 63 875 z "},"L":{"ha":706,"x_min":0,"x_max":0,"o":"m 63 0 l 671 0 l 671 188 l 278 188 l 278 875 l 63 875 z "},"M":{"ha":1168,"x_min":0,"x_max":0,"o":"m 264 0 l 264 669 l 472 0 l 696 0 l 904 669 l 904 0 l 1106 0 l 1106 875 l 767 875 l 585 260 l 401 875 l 63 875 l 63 0 z "},"N":{"ha":953,"x_min":0,"x_max":0,"o":"m 63 0 l 268 0 l 268 621 l 569 0 l 890 0 l 890 875 l 685 875 l 685 240 l 376 875 l 63 875 z "},"O":{"ha":985,"x_min":0,"x_max":0,"o":"m 492 -21 b 958 438 739 -21 958 161 b 492 896 958 714 738 896 b 26 438 246 896 26 714 b 492 -21 26 161 244 -21 z m 492 174 b 242 438 356 174 242 278 b 492 701 242 597 356 701 b 743 438 628 701 743 597 b 492 174 743 278 628 174 z "},"P":{"ha":747,"x_min":0,"x_max":0,"o":"m 63 0 l 278 0 l 278 292 l 394 292 b 726 583 603 292 726 406 b 393 875 726 761 617 875 l 63 875 z m 396 701 b 510 583 458 701 510 658 b 392 465 510 513 465 465 l 278 465 l 278 701 z "},"Q":{"ha":985,"x_min":0,"x_max":0,"o":"m 492 -21 b 576 -14 521 -21 549 -18 l 639 -99 l 881 -99 l 761 60 b 958 438 878 138 958 271 b 492 896 958 714 738 896 b 26 438 246 896 26 714 b 492 -21 26 161 244 -21 z m 492 174 b 242 438 356 174 242 278 b 492 701 242 597 356 701 b 743 438 628 701 743 597 b 492 174 743 278 628 174 z "},"R":{"ha":813,"x_min":0,"x_max":0,"o":"m 63 0 l 278 0 l 278 319 l 336 319 l 532 0 l 781 0 l 560 339 b 754 597 683 376 754 469 b 421 875 754 767 644 875 l 63 875 z m 424 701 b 538 597 486 701 538 664 b 419 493 538 532 493 493 l 278 493 l 278 701 z "},"S":{"ha":744,"x_min":0,"x_max":0,"o":"m 686 599 b 368 894 686 789 558 894 b 60 638 185 894 60 792 b 490 235 60 333 490 386 b 379 157 490 186 449 157 b 253 286 300 157 258 200 l 35 286 b 381 -21 35 89 185 -21 b 703 251 569 -21 703 85 b 271 647 703 564 271 500 b 369 717 271 688 307 717 b 475 599 424 717 474 690 z "},"T":{"ha":757,"x_min":0,"x_max":0,"o":"m 271 0 l 486 0 l 486 688 l 736 688 l 736 875 l 21 875 l 21 688 l 271 688 z "},"U":{"ha":867,"x_min":0,"x_max":0,"o":"m 63 875 l 63 365 b 433 -21 63 125 200 -21 b 804 365 667 -21 804 125 l 804 875 l 589 875 l 589 367 b 433 174 589 243 535 174 b 278 367 332 174 278 243 l 278 875 z "},"V":{"ha":863,"x_min":0,"x_max":0,"o":"m 243 875 l 7 875 l 296 0 l 568 0 l 856 875 l 628 875 l 436 218 z "},"W":{"ha":1261,"x_min":0,"x_max":0,"o":"m 243 875 l 14 875 l 233 0 l 499 0 l 631 517 l 763 0 l 1028 0 l 1247 875 l 1018 875 l 893 250 l 738 875 l 524 875 l 368 250 z "},"X":{"ha":840,"x_min":0,"x_max":0,"o":"m 31 875 l 292 471 l -7 0 l 233 0 l 408 293 l 597 0 l 847 0 l 544 467 l 810 875 l 569 875 l 431 644 l 281 875 z "},"Y":{"ha":871,"x_min":0,"x_max":0,"o":"m 328 0 l 543 0 l 543 346 l 857 875 l 625 875 l 438 551 l 254 875 l 14 875 l 328 344 z "},"Z":{"ha":804,"x_min":0,"x_max":0,"o":"m 56 0 l 749 0 l 749 188 l 336 188 l 735 701 l 735 875 l 83 875 l 83 688 l 454 688 l 56 174 z "},"Æ":{"ha":1160,"x_min":0,"x_max":0,"o":"m 549 0 l 1118 0 l 1118 181 l 764 181 l 764 354 l 1097 354 l 1097 535 l 764 535 l 764 694 l 1118 694 l 1118 875 l 399 875 l 7 0 l 235 0 l 318 197 l 549 197 z m 393 378 l 549 746 l 549 378 z "},"Œ":{"ha":1239,"x_min":0,"x_max":0,"o":"m 24 438 b 490 0 24 188 217 0 l 1197 0 l 1197 181 l 806 181 l 806 354 l 1176 354 l 1176 535 l 806 535 l 806 694 l 1197 694 l 1197 875 l 490 875 b 24 438 217 875 24 688 z m 483 688 l 590 688 l 590 188 l 483 188 b 239 438 336 188 239 272 b 483 688 239 603 336 688 z "},"Ł":{"ha":692,"x_min":0,"x_max":0,"o":"m 69 0 l 678 0 l 678 188 l 285 188 l 285 425 l 439 499 l 439 664 l 285 590 l 285 875 l 69 875 l 69 497 l -28 451 l -28 286 l 69 332 z "},"Ø":{"ha":979,"x_min":0,"x_max":0,"o":"m 38 0 l 210 0 l 247 44 b 492 -21 319 3 404 -21 b 958 438 739 -21 958 161 b 838 750 958 564 911 672 l 942 875 l 769 875 l 733 832 b 492 896 661 874 578 896 b 26 438 246 896 26 714 b 144 128 26 311 71 206 z m 242 438 b 492 701 242 597 356 701 b 603 676 532 701 569 693 l 281 290 b 242 438 256 331 242 381 z m 492 174 b 378 200 451 174 413 183 l 701 588 b 743 438 728 547 743 496 b 492 174 743 278 628 174 z "},"Ð":{"ha":889,"x_min":0,"x_max":0,"o":"m 63 0 l 336 0 b 864 438 646 0 864 156 b 336 875 864 719 646 875 l 63 875 l 63 521 l -8 521 l -8 354 l 63 354 z m 363 188 l 278 188 l 278 354 l 422 354 l 422 521 l 278 521 l 278 688 l 363 688 b 649 438 535 688 649 589 b 363 188 649 286 535 188 z "},"Þ":{"ha":761,"x_min":0,"x_max":0,"o":"m 63 0 l 278 0 l 278 153 l 432 153 b 740 444 651 153 740 279 b 431 736 740 604 656 736 l 278 736 l 278 875 l 63 875 z m 379 563 b 524 444 469 563 524 519 b 375 326 524 369 479 326 l 278 326 l 278 563 z "},"a":{"ha":774,"x_min":0,"x_max":0,"o":"m 33 306 b 297 -21 33 96 154 -21 b 497 81 379 -21 453 13 l 497 0 l 711 0 l 711 611 l 497 611 l 497 531 b 297 632 453 599 379 632 b 33 306 154 632 33 515 z m 374 458 b 500 306 450 458 500 403 b 374 153 500 208 449 153 b 247 306 293 153 247 218 b 374 458 247 393 293 458 z "},"b":{"ha":774,"x_min":0,"x_max":0,"o":"m 740 306 b 476 632 740 515 619 632 b 276 531 394 632 321 599 l 276 944 l 63 944 l 63 0 l 276 0 l 276 81 b 476 -21 321 13 394 -21 b 740 306 619 -21 740 96 z m 400 458 b 526 306 481 458 526 393 b 400 153 526 218 481 153 b 274 306 325 153 274 210 b 400 458 274 401 324 458 z "},"c":{"ha":707,"x_min":0,"x_max":0,"o":"m 244 306 b 361 465 244 413 297 465 b 463 365 411 465 457 433 l 682 365 b 361 632 653 567 492 632 b 31 306 197 632 31 531 b 361 -21 31 81 197 -21 b 682 246 493 -21 654 44 l 463 246 b 361 146 456 179 411 146 b 244 306 297 146 244 199 z "},"d":{"ha":774,"x_min":0,"x_max":0,"o":"m 33 306 b 297 -21 33 96 154 -21 b 497 81 379 -21 453 13 l 497 0 l 711 0 l 711 944 l 497 944 l 497 531 b 297 632 453 599 379 632 b 33 306 154 632 33 515 z m 374 458 b 500 306 450 458 500 401 b 374 153 500 210 449 153 b 247 306 293 153 247 218 b 374 458 247 393 293 458 z "},"e":{"ha":710,"x_min":0,"x_max":0,"o":"m 361 -21 b 674 204 513 -21 644 56 l 463 204 b 361 139 453 165 422 139 b 242 256 299 139 254 167 l 678 256 b 682 324 681 279 682 300 b 360 632 682 503 563 632 b 31 306 167 632 31 497 b 361 -21 31 114 168 -21 z m 357 472 b 474 375 422 472 467 440 l 239 375 b 357 472 250 444 293 472 z "},"f":{"ha":572,"x_min":0,"x_max":0,"o":"m 21 444 l 153 444 l 153 0 l 367 0 l 367 444 l 551 444 l 551 611 l 367 611 l 367 657 b 471 781 367 747 393 781 b 558 774 493 781 531 778 l 558 954 b 457 965 535 960 497 965 b 153 676 263 965 153 860 l 153 611 l 21 611 z "},"g":{"ha":776,"x_min":0,"x_max":0,"o":"m 36 310 b 174 26 36 179 96 79 l 25 -47 b 365 -264 96 -192 215 -264 b 714 107 588 -264 714 -118 l 714 611 l 500 611 l 500 531 b 300 632 456 599 382 632 b 36 310 157 632 36 517 z m 376 458 b 503 310 453 458 503 404 b 376 161 503 215 451 161 b 250 310 296 161 250 225 b 376 458 250 394 296 458 z m 299 -12 b 507 106 394 -12 467 31 l 507 88 b 365 -90 507 -40 456 -90 b 224 1 304 -90 253 -64 b 299 -12 249 -8 274 -12 z "},"h":{"ha":740,"x_min":0,"x_max":0,"o":"m 63 0 l 276 0 l 276 335 b 382 458 276 421 317 458 b 474 335 442 458 474 418 l 474 0 l 688 0 l 688 356 b 456 632 688 529 599 632 b 276 531 378 632 315 596 l 276 944 l 63 944 z "},"i":{"ha":339,"x_min":0,"x_max":0,"o":"m 169 685 b 300 815 242 685 300 743 b 169 946 300 889 242 946 b 39 815 97 946 39 889 b 169 685 39 743 97 685 z m 63 0 l 276 0 l 276 611 l 63 611 z "},"j":{"ha":339,"x_min":0,"x_max":0,"o":"m 169 685 b 300 815 242 685 300 743 b 169 946 300 889 242 946 b 39 815 97 946 39 889 b 169 685 39 743 97 685 z m 63 -14 b 0 -78 63 -61 49 -78 b -82 -69 -22 -78 -54 -76 l -82 -249 b 36 -264 -49 -256 -3 -264 b 276 -46 188 -264 276 -201 l 276 611 l 63 611 z "},"k":{"ha":743,"x_min":0,"x_max":0,"o":"m 63 0 l 276 0 l 276 264 l 475 0 l 736 0 l 478 322 l 717 611 l 483 611 l 276 371 l 276 944 l 63 944 z "},"l":{"ha":339,"x_min":0,"x_max":0,"o":"m 63 0 l 276 0 l 276 944 l 63 944 z "},"m":{"ha":1138,"x_min":0,"x_max":0,"o":"m 63 0 l 276 0 l 276 328 b 375 458 276 428 318 458 b 467 335 431 458 467 418 l 467 0 l 681 0 l 681 328 b 779 458 681 428 722 458 b 871 335 835 458 871 418 l 871 0 l 1085 0 l 1085 356 b 853 632 1085 532 992 632 b 651 506 764 632 689 588 b 449 632 613 588 542 632 b 276 536 382 632 317 601 l 276 611 l 63 611 z "},"n":{"ha":740,"x_min":0,"x_max":0,"o":"m 63 0 l 276 0 l 276 335 b 382 458 276 421 317 458 b 474 335 442 458 474 418 l 474 0 l 688 0 l 688 356 b 456 632 688 529 599 632 b 276 531 378 632 315 596 l 276 611 l 63 611 z "},"o":{"ha":731,"x_min":0,"x_max":0,"o":"m 365 -21 b 700 306 550 -21 700 113 b 365 632 700 499 549 632 b 31 306 182 632 31 499 b 365 -21 31 113 181 -21 z m 365 160 b 244 306 288 160 244 219 b 365 451 244 392 289 451 b 486 306 442 451 486 392 b 365 160 486 219 443 160 z "},"p":{"ha":774,"x_min":0,"x_max":0,"o":"m 63 -243 l 276 -243 l 276 81 b 476 -21 321 13 394 -21 b 740 306 619 -21 740 96 b 476 632 740 515 619 632 b 276 531 394 632 321 599 l 276 611 l 63 611 z m 400 153 b 274 306 324 153 274 210 b 400 458 274 401 325 458 b 526 306 481 458 526 393 b 400 153 526 218 481 153 z "},"q":{"ha":774,"x_min":0,"x_max":0,"o":"m 33 306 b 297 -21 33 96 154 -21 b 497 81 379 -21 453 13 l 497 -243 l 711 -243 l 711 611 l 497 611 l 497 531 b 297 632 453 599 379 632 b 33 306 154 632 33 515 z m 374 153 b 247 306 293 153 247 218 b 374 458 247 393 293 458 b 500 306 449 458 500 401 b 374 153 500 210 450 153 z "},"r":{"ha":567,"x_min":0,"x_max":0,"o":"m 63 0 l 276 0 l 276 285 b 443 426 276 376 314 426 b 543 417 481 426 510 422 l 543 626 b 486 632 529 629 508 632 b 276 489 393 632 318 585 l 276 611 l 63 611 z "},"s":{"ha":636,"x_min":0,"x_max":0,"o":"m 585 432 b 315 632 571 568 467 632 b 47 435 149 632 47 554 b 233 246 47 340 99 275 l 351 221 b 401 176 389 213 401 196 b 332 125 401 143 372 125 b 242 199 279 125 244 150 l 32 199 b 326 -21 40 71 150 -21 b 610 199 490 -21 610 72 b 464 372 610 289 572 350 l 328 400 b 256 450 267 413 256 425 b 310 486 256 475 279 486 b 382 432 349 486 382 469 z "},"t":{"ha":561,"x_min":0,"x_max":0,"o":"m 0 444 l 129 444 l 129 226 b 382 -21 129 47 215 -21 b 519 -7 426 -21 478 -17 l 519 178 b 425 167 492 174 457 167 b 343 242 371 167 343 182 l 343 444 l 519 444 l 519 611 l 343 611 l 343 847 l 129 847 l 129 611 l 0 611 z "},"u":{"ha":719,"x_min":0,"x_max":0,"o":"m 267 611 l 53 611 l 53 222 b 271 -21 53 67 140 -21 b 443 79 338 -21 403 13 l 443 0 l 657 0 l 657 611 l 443 611 l 443 301 b 354 160 443 203 404 160 b 267 283 301 160 267 200 z "},"v":{"ha":693,"x_min":0,"x_max":0,"o":"m 471 611 l 350 221 l 228 611 l 8 611 l 224 0 l 469 0 l 685 611 z "},"w":{"ha":1043,"x_min":0,"x_max":0,"o":"m 414 611 l 322 229 l 229 611 l 10 611 l 190 0 l 438 0 l 525 354 l 613 0 l 853 0 l 1033 611 l 821 611 l 724 214 l 629 611 z "},"x":{"ha":703,"x_min":0,"x_max":0,"o":"m 239 0 l 342 168 l 464 0 l 694 0 l 464 318 l 678 611 l 447 611 l 351 471 l 250 611 l 19 611 l 232 319 l 8 0 z "},"y":{"ha":665,"x_min":0,"x_max":0,"o":"m 444 611 l 336 276 l 225 611 l 8 611 l 228 44 l 124 -243 l 328 -243 l 658 611 z "},"z":{"ha":635,"x_min":0,"x_max":0,"o":"m 33 0 l 601 0 l 601 174 l 321 174 l 583 468 l 583 611 l 46 611 l 46 438 l 313 438 l 33 133 z "},"æ":{"ha":1092,"x_min":0,"x_max":0,"o":"m 754 -21 b 1056 204 900 -21 1026 56 l 851 204 b 760 139 842 165 814 139 b 649 256 701 139 657 167 l 1060 256 b 1064 324 1063 279 1064 300 b 756 632 1064 503 950 632 b 561 569 681 632 614 610 b 364 632 514 610 447 632 b 53 388 207 632 72 554 l 258 388 b 343 465 258 447 293 465 b 432 371 404 465 432 440 l 432 358 l 238 338 b 33 171 94 322 33 265 b 258 -21 33 54 124 -21 b 496 111 365 -21 451 31 b 754 -21 551 29 643 -21 z m 754 472 b 863 375 817 472 849 438 l 647 375 b 754 472 656 439 693 472 z m 249 171 b 321 229 249 206 274 225 l 432 240 b 321 114 432 164 389 114 b 249 171 278 114 249 133 z "},"œ":{"ha":1171,"x_min":0,"x_max":0,"o":"m 365 -21 b 593 63 453 -21 533 10 b 822 -21 651 10 731 -21 b 1135 204 974 -21 1106 56 l 924 204 b 822 139 914 165 883 139 b 703 256 760 139 715 167 l 1139 256 b 1143 324 1142 279 1143 300 b 821 632 1143 503 1024 632 b 593 549 729 632 650 601 b 365 632 533 601 453 632 b 31 306 182 632 31 499 b 365 -21 31 113 181 -21 z m 818 472 b 935 375 883 472 928 440 l 700 375 b 818 472 711 444 754 472 z m 365 160 b 244 306 288 160 244 219 b 365 451 244 392 289 451 b 486 306 442 451 486 392 b 365 160 486 219 443 160 z "},"ł":{"ha":383,"x_min":0,"x_max":0,"o":"m 85 0 l 299 0 l 299 453 l 386 517 l 386 674 l 299 611 l 299 944 l 85 944 l 85 501 l 0 436 l 0 279 l 85 344 z "},"ø":{"ha":731,"x_min":0,"x_max":0,"o":"m 31 0 l 135 0 l 168 38 b 365 -21 224 0 292 -21 b 700 306 550 -21 700 113 b 611 532 700 397 665 475 l 700 632 l 596 632 l 550 581 b 365 632 497 614 433 632 b 31 306 182 632 31 499 b 110 89 31 219 61 144 z m 244 306 b 365 451 244 392 289 451 b 422 438 388 451 406 447 l 251 247 b 244 306 247 265 244 285 z m 365 160 b 296 181 338 160 315 167 l 474 378 b 486 306 482 357 486 333 b 365 160 486 219 443 160 z "},"ð":{"ha":797,"x_min":0,"x_max":0,"o":"m 381 -21 b 732 360 594 -21 732 126 b 575 772 732 499 667 649 l 701 813 l 701 906 l 515 846 b 388 958 474 890 431 928 l 185 915 b 339 788 242 878 293 835 l 182 738 l 182 644 l 403 715 b 511 553 444 664 481 610 b 381 581 471 572 428 581 b 76 285 208 581 76 464 b 381 -21 76 104 214 -21 z m 404 160 b 290 285 336 160 290 210 b 404 410 290 358 338 410 b 518 285 471 410 518 358 b 404 160 518 210 472 160 z "},"þ":{"ha":760,"x_min":0,"x_max":0,"o":"m 63 -243 l 276 -243 l 276 79 b 469 -21 321 11 392 -21 b 726 306 608 -21 726 96 b 469 632 726 515 608 632 b 276 532 392 632 321 600 l 276 944 l 63 944 z m 393 458 b 513 306 469 458 513 393 b 393 153 513 218 469 153 b 274 306 321 153 274 210 b 393 458 274 401 322 458 z "},"ß":{"ha":879,"x_min":0,"x_max":0,"o":"m 124 0 l 338 0 l 338 653 b 442 799 338 757 371 799 b 542 690 504 799 542 765 b 440 576 542 614 507 576 l 417 576 l 417 417 l 461 417 b 643 278 590 417 643 365 b 522 146 643 196 597 146 b 428 167 494 146 458 151 l 428 0 b 553 -21 471 -12 507 -21 b 849 261 733 -21 849 99 b 624 507 849 388 782 475 b 753 726 715 556 753 639 b 453 965 753 878 619 965 b 124 625 246 965 124 835 l 124 611 l 19 611 l 19 444 l 124 444 z "},"ı":{"ha":339,"x_min":0,"x_max":0,"o":"m 63 0 l 276 0 l 276 611 l 63 611 z "},"ȷ":{"ha":339,"x_min":0,"x_max":0,"o":"m 63 -14 b 0 -78 63 -61 49 -78 b -82 -69 -22 -78 -54 -76 l -82 -249 b 36 -264 -49 -256 -3 -264 b 276 -46 188 -264 276 -201 l 276 611 l 63 611 z "},"ﬁ":{"ha":906,"x_min":0,"x_max":0,"o":"m 21 444 l 153 444 l 153 0 l 367 0 l 367 444 l 551 444 l 551 611 l 367 611 l 367 657 b 471 781 367 747 393 781 b 558 774 493 781 531 778 l 558 954 b 457 965 535 960 497 965 b 153 676 263 965 153 860 l 153 611 l 21 611 z m 736 685 b 867 815 808 685 867 743 b 736 946 867 889 808 946 b 606 815 664 946 606 889 b 736 685 606 743 664 685 z m 629 0 l 843 0 l 843 611 l 629 611 z "},"ﬂ":{"ha":929,"x_min":0,"x_max":0,"o":"m 21 444 l 153 444 l 153 0 l 367 0 l 367 444 l 551 444 l 551 611 l 367 611 l 367 657 b 471 781 367 747 393 781 b 558 774 493 781 531 778 l 558 954 b 457 965 535 960 497 965 b 153 676 263 965 153 860 l 153 611 l 21 611 z m 653 0 l 867 0 l 867 944 l 653 944 z "},"Á":{"ha":925,"x_min":0,"x_max":0,"o":"m 678 0 l 911 0 l 600 875 l 322 875 l 14 0 l 242 0 l 296 169 l 624 169 z m 351 343 l 460 681 l 568 343 z m 549 944 l 700 1115 l 467 1115 l 385 944 z "},"Â":{"ha":925,"x_min":0,"x_max":0,"o":"m 678 0 l 911 0 l 600 875 l 322 875 l 14 0 l 242 0 l 296 169 l 624 169 z m 351 343 l 460 681 l 568 343 z m 404 944 l 461 1018 l 517 944 l 688 944 l 592 1115 l 329 1115 l 233 944 z "},"Ä":{"ha":925,"x_min":0,"x_max":0,"o":"m 678 0 l 911 0 l 600 875 l 322 875 l 14 0 l 242 0 l 296 169 l 624 169 z m 351 343 l 460 681 l 568 343 z m 321 938 b 431 1053 382 938 431 989 b 321 1165 431 1115 382 1165 b 210 1053 260 1165 210 1115 b 321 938 210 989 260 938 z m 600 938 b 710 1053 661 938 710 989 b 600 1165 710 1115 661 1165 b 489 1053 539 1165 489 1115 b 600 938 489 989 539 938 z "},"À":{"ha":925,"x_min":0,"x_max":0,"o":"m 678 0 l 911 0 l 600 875 l 322 875 l 14 0 l 242 0 l 296 169 l 624 169 z m 351 343 l 460 681 l 568 343 z m 386 944 l 550 944 l 468 1115 l 235 1115 z "},"Å":{"ha":925,"x_min":0,"x_max":0,"o":"m 678 0 l 911 0 l 600 874 b 622 954 614 897 622 925 b 461 1111 622 1042 550 1111 b 301 954 371 1111 301 1042 b 322 875 301 925 308 899 l 14 0 l 242 0 l 296 169 l 624 169 z m 461 875 b 382 954 415 875 382 908 b 461 1033 382 1000 415 1033 b 540 954 507 1033 540 1000 b 461 875 540 908 507 875 z m 351 343 l 460 681 l 568 343 z "},"Ã":{"ha":925,"x_min":0,"x_max":0,"o":"m 678 0 l 911 0 l 600 875 l 322 875 l 14 0 l 242 0 l 296 169 l 624 169 z m 351 343 l 460 681 l 568 343 z m 565 938 b 735 1121 679 938 725 1000 l 592 1121 b 554 1075 592 1088 582 1075 b 351 1128 500 1075 453 1128 b 182 944 238 1128 192 1065 l 325 944 b 363 990 325 976 336 990 b 565 938 414 990 475 938 z "},"Ă":{"ha":925,"x_min":0,"x_max":0,"o":"m 678 0 l 911 0 l 600 875 l 322 875 l 14 0 l 242 0 l 296 169 l 624 169 z m 351 343 l 460 681 l 568 343 z m 390 1115 l 232 1115 b 460 931 238 1006 324 931 b 689 1115 596 931 683 1004 l 529 1115 b 460 1044 529 1067 504 1044 b 390 1115 415 1044 390 1068 z "},"Ā":{"ha":925,"x_min":0,"x_max":0,"o":"m 678 0 l 911 0 l 600 875 l 322 875 l 14 0 l 242 0 l 296 169 l 624 169 z m 351 343 l 460 681 l 568 343 z m 692 972 l 692 1088 l 238 1088 l 238 972 z "},"Ą":{"ha":925,"x_min":0,"x_max":0,"o":"m 678 0 l 765 0 b 663 -171 704 -40 663 -100 b 822 -315 663 -260 729 -315 b 910 -294 860 -315 889 -306 l 910 -156 b 858 -168 897 -162 881 -168 b 797 -112 818 -168 797 -150 b 911 0 797 -58 846 -26 l 600 875 l 322 875 l 14 0 l 242 0 l 296 169 l 624 169 z m 351 343 l 460 681 l 568 343 z "},"Ç":{"ha":914,"x_min":0,"x_max":0,"o":"m 335 -132 l 392 -169 b 451 -147 418 -153 432 -147 b 500 -189 483 -147 500 -162 b 450 -233 500 -218 481 -233 b 365 -176 418 -233 394 -218 l 276 -233 b 453 -336 321 -306 386 -336 b 611 -192 538 -336 611 -283 b 507 -69 611 -119 568 -69 b 454 -85 486 -69 469 -75 l 489 -21 b 885 344 656 -12 832 64 l 667 344 b 461 174 643 231 575 174 b 242 438 331 174 242 285 b 461 701 242 590 329 701 b 664 531 572 701 642 642 l 885 531 b 461 896 831 818 635 896 b 26 438 199 896 26 703 b 399 -17 26 194 178 13 z "},"Ć":{"ha":914,"x_min":0,"x_max":0,"o":"m 667 344 b 461 174 643 231 575 174 b 242 438 331 174 242 285 b 461 701 242 590 329 701 b 664 531 572 701 642 642 l 885 531 b 461 896 831 818 635 896 b 26 438 199 896 26 703 b 461 -21 26 172 207 -21 b 885 344 635 -21 829 49 z m 550 944 l 701 1115 l 468 1115 l 386 944 z "},"Č":{"ha":914,"x_min":0,"x_max":0,"o":"m 667 344 b 461 174 643 231 575 174 b 242 438 331 174 242 285 b 461 701 242 590 329 701 b 664 531 572 701 642 642 l 885 531 b 461 896 831 818 635 896 b 26 438 199 896 26 703 b 461 -21 26 172 207 -21 b 885 344 635 -21 829 49 z m 404 1115 l 233 1115 l 329 944 l 592 944 l 688 1115 l 517 1115 l 461 1042 z "},"Ĉ":{"ha":914,"x_min":0,"x_max":0,"o":"m 667 344 b 461 174 643 231 575 174 b 242 438 331 174 242 285 b 461 701 242 590 329 701 b 664 531 572 701 642 642 l 885 531 b 461 896 831 818 635 896 b 26 438 199 896 26 703 b 461 -21 26 172 207 -21 b 885 344 635 -21 829 49 z m 406 944 l 463 1018 l 518 944 l 689 944 l 593 1115 l 331 1115 l 235 944 z "},"Ċ":{"ha":914,"x_min":0,"x_max":0,"o":"m 667 344 b 461 174 643 231 575 174 b 242 438 331 174 242 285 b 461 701 242 590 329 701 b 664 531 572 701 642 642 l 885 531 b 461 896 831 818 635 896 b 26 438 199 896 26 703 b 461 -21 26 172 207 -21 b 885 344 635 -21 829 49 z m 461 944 b 592 1075 533 944 592 1003 b 461 1204 592 1147 533 1204 b 331 1075 389 1204 331 1147 b 461 944 331 1003 389 944 z "},"Ď":{"ha":892,"x_min":0,"x_max":0,"o":"m 63 0 l 336 0 b 864 438 646 0 864 156 b 336 875 864 719 646 875 l 63 875 z m 363 188 l 278 188 l 278 688 l 363 688 b 649 438 535 688 649 589 b 363 188 649 286 535 188 z m 356 1115 l 185 1115 l 281 944 l 543 944 l 639 1115 l 468 1115 l 413 1042 z "},"Đ":{"ha":889,"x_min":0,"x_max":0,"o":"m 63 0 l 336 0 b 864 438 646 0 864 156 b 336 875 864 719 646 875 l 63 875 l 63 521 l -8 521 l -8 354 l 63 354 z m 363 188 l 278 188 l 278 354 l 422 354 l 422 521 l 278 521 l 278 688 l 363 688 b 649 438 535 688 649 589 b 363 188 649 286 535 188 z "},"É":{"ha":700,"x_min":0,"x_max":0,"o":"m 63 0 l 660 0 l 660 181 l 278 181 l 278 354 l 639 354 l 639 535 l 278 535 l 278 694 l 660 694 l 660 875 l 63 875 z m 453 944 l 604 1115 l 371 1115 l 289 944 z "},"Ê":{"ha":700,"x_min":0,"x_max":0,"o":"m 63 0 l 660 0 l 660 181 l 278 181 l 278 354 l 639 354 l 639 535 l 278 535 l 278 694 l 660 694 l 660 875 l 63 875 z m 308 944 l 365 1018 l 421 944 l 592 944 l 496 1115 l 233 1115 l 138 944 z "},"Ë":{"ha":700,"x_min":0,"x_max":0,"o":"m 63 0 l 660 0 l 660 181 l 278 181 l 278 354 l 639 354 l 639 535 l 278 535 l 278 694 l 660 694 l 660 875 l 63 875 z m 225 938 b 335 1053 286 938 335 989 b 225 1165 335 1115 286 1165 b 114 1053 164 1165 114 1115 b 225 938 114 989 164 938 z m 504 938 b 614 1053 565 938 614 989 b 504 1165 614 1115 565 1165 b 393 1053 443 1165 393 1115 b 504 938 393 989 443 938 z "},"È":{"ha":700,"x_min":0,"x_max":0,"o":"m 290 944 l 454 944 l 372 1115 l 139 1115 z m 63 0 l 660 0 l 660 181 l 278 181 l 278 354 l 639 354 l 639 535 l 278 535 l 278 694 l 660 694 l 660 875 l 63 875 z "},"Ĕ":{"ha":700,"x_min":0,"x_max":0,"o":"m 63 0 l 660 0 l 660 181 l 278 181 l 278 354 l 639 354 l 639 535 l 278 535 l 278 694 l 660 694 l 660 875 l 63 875 z m 294 1115 l 136 1115 b 364 931 142 1006 228 931 b 593 1115 500 931 588 1004 l 433 1115 b 364 1044 433 1067 408 1044 b 294 1115 319 1044 294 1068 z "},"Ě":{"ha":700,"x_min":0,"x_max":0,"o":"m 63 0 l 660 0 l 660 181 l 278 181 l 278 354 l 639 354 l 639 535 l 278 535 l 278 694 l 660 694 l 660 875 l 63 875 z m 307 1115 l 136 1115 l 232 944 l 494 944 l 590 1115 l 419 1115 l 364 1042 z "},"Ė":{"ha":700,"x_min":0,"x_max":0,"o":"m 63 0 l 660 0 l 660 181 l 278 181 l 278 354 l 639 354 l 639 535 l 278 535 l 278 694 l 660 694 l 660 875 l 63 875 z m 364 944 b 494 1075 436 944 494 1003 b 364 1204 494 1147 436 1204 b 233 1075 292 1204 233 1147 b 364 944 233 1003 292 944 z "},"Ē":{"ha":700,"x_min":0,"x_max":0,"o":"m 63 0 l 660 0 l 660 181 l 278 181 l 278 354 l 639 354 l 639 535 l 278 535 l 278 694 l 660 694 l 660 875 l 63 875 z m 596 972 l 596 1088 l 142 1088 l 142 972 z "},"Ę":{"ha":700,"x_min":0,"x_max":0,"o":"m 63 0 l 513 0 b 410 -171 451 -40 410 -100 b 569 -315 410 -260 476 -315 b 657 -294 607 -315 636 -306 l 657 -156 b 606 -168 644 -162 628 -168 b 544 -112 565 -168 544 -150 b 658 0 544 -58 593 -26 l 660 0 l 660 181 l 278 181 l 278 354 l 639 354 l 639 535 l 278 535 l 278 694 l 660 694 l 660 875 l 63 875 z "},"Ğ":{"ha":946,"x_min":0,"x_max":0,"o":"m 471 510 l 471 336 l 686 336 b 483 174 664 221 596 174 b 242 438 340 174 242 264 b 468 701 242 593 331 701 b 660 579 563 701 633 654 l 888 579 b 468 896 824 807 656 896 b 26 438 210 896 26 725 b 465 -21 26 153 219 -21 b 899 342 693 -21 850 103 l 899 510 z m 399 1115 l 240 1115 b 468 931 246 1006 332 931 b 697 1115 604 931 692 1004 l 538 1115 b 468 1044 538 1067 513 1044 b 399 1115 424 1044 399 1068 z "},"Ĝ":{"ha":946,"x_min":0,"x_max":0,"o":"m 471 510 l 471 336 l 686 336 b 483 174 664 221 596 174 b 242 438 340 174 242 264 b 468 701 242 593 331 701 b 660 579 563 701 633 654 l 888 579 b 468 896 824 807 656 896 b 26 438 210 896 26 725 b 465 -21 26 153 219 -21 b 899 342 693 -21 850 103 l 899 510 z m 413 944 l 469 1018 l 525 944 l 696 944 l 600 1115 l 338 1115 l 242 944 z "},"Ģ":{"ha":946,"x_min":0,"x_max":0,"o":"m 471 510 l 471 336 l 686 336 b 483 174 664 221 596 174 b 242 438 340 174 242 264 b 468 701 242 593 331 701 b 660 579 563 701 633 654 l 888 579 b 468 896 824 807 656 896 b 26 438 210 896 26 725 b 465 -21 26 153 219 -21 b 899 342 693 -21 850 103 l 899 510 z m 363 -62 b 324 -264 363 -124 349 -201 l 508 -264 b 586 -62 560 -190 581 -129 z "},"Ġ":{"ha":946,"x_min":0,"x_max":0,"o":"m 471 510 l 471 336 l 686 336 b 483 174 664 221 596 174 b 242 438 340 174 242 264 b 468 701 242 593 331 701 b 660 579 563 701 633 654 l 888 579 b 468 896 824 807 656 896 b 26 438 210 896 26 725 b 465 -21 26 153 219 -21 b 899 342 693 -21 850 103 l 899 510 z m 468 944 b 599 1075 540 944 599 1003 b 468 1204 599 1147 540 1204 b 338 1075 396 1204 338 1147 b 468 944 338 1003 396 944 z "},"Ħ":{"ha":897,"x_min":0,"x_max":0,"o":"m 63 0 l 278 0 l 278 344 l 619 344 l 619 0 l 835 0 l 835 653 l 893 653 l 893 754 l 835 754 l 835 875 l 619 875 l 619 754 l 278 754 l 278 875 l 63 875 l 63 754 l 4 754 l 4 653 l 63 653 z m 278 532 l 278 653 l 619 653 l 619 532 z "},"Ĥ":{"ha":897,"x_min":0,"x_max":0,"o":"m 63 0 l 278 0 l 278 344 l 619 344 l 619 0 l 835 0 l 835 875 l 619 875 l 619 532 l 278 532 l 278 875 l 63 875 z m 393 944 l 450 1018 l 506 944 l 676 944 l 581 1115 l 318 1115 l 222 944 z "},"Í":{"ha":354,"x_min":0,"x_max":0,"o":"m 69 0 l 285 0 l 285 875 l 69 875 z m 260 944 l 411 1115 l 178 1115 l 96 944 z "},"Î":{"ha":354,"x_min":0,"x_max":0,"o":"m 69 0 l 285 0 l 285 875 l 69 875 z m 115 944 l 172 1018 l 228 944 l 399 944 l 303 1115 l 40 1115 l -56 944 z "},"Ï":{"ha":354,"x_min":0,"x_max":0,"o":"m 69 0 l 285 0 l 285 875 l 69 875 z m 32 938 b 142 1053 93 938 142 989 b 32 1165 142 1115 93 1165 b -79 1053 -29 1165 -79 1115 b 32 938 -79 989 -29 938 z m 311 938 b 421 1053 372 938 421 989 b 311 1165 421 1115 372 1165 b 200 1053 250 1165 200 1115 b 311 938 200 989 250 938 z "},"Ì":{"ha":354,"x_min":0,"x_max":0,"o":"m 97 944 l 261 944 l 179 1115 l -54 1115 z m 69 0 l 285 0 l 285 875 l 69 875 z "},"Ĭ":{"ha":354,"x_min":0,"x_max":0,"o":"m 69 0 l 285 0 l 285 875 l 69 875 z m 101 1115 l -57 1115 b 171 931 -51 1006 35 931 b 400 1115 307 931 394 1004 l 240 1115 b 171 1044 240 1067 215 1044 b 101 1115 126 1044 101 1068 z "},"İ":{"ha":354,"x_min":0,"x_max":0,"o":"m 69 0 l 285 0 l 285 875 l 69 875 z m 171 944 b 301 1075 243 944 301 1003 b 171 1204 301 1147 243 1204 b 40 1075 99 1204 40 1147 b 171 944 40 1003 99 944 z "},"Ī":{"ha":354,"x_min":0,"x_max":0,"o":"m 69 0 l 285 0 l 285 875 l 69 875 z m 403 972 l 403 1088 l -51 1088 l -51 972 z "},"Į":{"ha":354,"x_min":0,"x_max":0,"o":"m 69 0 l 138 0 b 35 -171 76 -40 35 -100 b 194 -315 35 -260 101 -315 b 282 -294 232 -315 261 -306 l 282 -156 b 231 -168 269 -162 253 -168 b 169 -112 190 -168 169 -150 b 283 0 169 -58 218 -26 l 285 0 l 285 875 l 69 875 z "},"Ĩ":{"ha":354,"x_min":0,"x_max":0,"o":"m 69 0 l 285 0 l 285 875 l 69 875 z m 276 938 b 446 1121 390 938 436 1000 l 303 1121 b 265 1075 303 1088 293 1075 b 63 1128 211 1075 164 1128 b -107 944 -51 1128 -97 1065 l 36 944 b 74 990 36 976 47 990 b 276 938 125 990 186 938 z "},"Ĳ":{"ha":1047,"x_min":0,"x_max":0,"o":"m 69 0 l 285 0 l 285 875 l 69 875 z m 993 875 l 778 875 l 778 288 b 682 167 778 207 746 167 b 582 303 622 167 575 201 l 378 303 b 688 -21 369 88 496 -21 b 993 294 874 -21 993 81 z "},"Ĵ":{"ha":693,"x_min":0,"x_max":0,"o":"m 639 875 l 424 875 l 424 288 b 328 167 424 207 392 167 b 228 303 268 167 221 201 l 24 303 b 333 -21 15 88 142 -21 b 639 294 519 -21 639 81 z m 472 944 l 529 1018 l 585 944 l 756 944 l 660 1115 l 397 1115 l 301 944 z "},"Ķ":{"ha":824,"x_min":0,"x_max":0,"o":"m 63 0 l 278 0 l 278 411 l 578 0 l 843 0 l 492 457 l 804 875 l 564 875 l 278 486 l 278 875 l 63 875 z m 322 -62 b 283 -264 322 -124 308 -201 l 468 -264 b 546 -62 519 -190 540 -129 z "},"Ĺ":{"ha":706,"x_min":0,"x_max":0,"o":"m 63 0 l 671 0 l 671 188 l 278 188 l 278 875 l 63 875 z m 260 944 l 411 1115 l 178 1115 l 96 944 z "},"Ľ":{"ha":706,"x_min":0,"x_max":0,"o":"m 63 0 l 671 0 l 671 188 l 278 188 l 278 875 l 63 875 z m 469 674 l 546 875 l 354 875 l 338 674 z "},"Ļ":{"ha":706,"x_min":0,"x_max":0,"o":"m 63 0 l 671 0 l 671 188 l 278 188 l 278 875 l 63 875 z m 276 -62 b 238 -264 276 -124 263 -201 l 422 -264 b 500 -62 474 -190 494 -129 z "},"Ŀ":{"ha":706,"x_min":0,"x_max":0,"o":"m 63 0 l 671 0 l 671 188 l 278 188 l 278 875 l 63 875 z m 522 356 b 653 486 594 356 653 414 b 522 615 653 558 594 615 b 392 486 450 615 392 558 b 522 356 392 414 450 356 z "},"Ñ":{"ha":953,"x_min":0,"x_max":0,"o":"m 63 0 l 268 0 l 268 621 l 569 0 l 890 0 l 890 875 l 685 875 l 685 240 l 376 875 l 63 875 z m 583 938 b 753 1121 697 938 743 1000 l 610 1121 b 572 1075 610 1088 600 1075 b 369 1128 518 1075 471 1128 b 200 944 256 1128 210 1065 l 343 944 b 381 990 343 976 354 990 b 583 938 432 990 493 938 z "},"Ń":{"ha":953,"x_min":0,"x_max":0,"o":"m 63 0 l 268 0 l 268 621 l 569 0 l 890 0 l 890 875 l 685 875 l 685 240 l 376 875 l 63 875 z m 558 944 l 710 1115 l 476 1115 l 394 944 z "},"Ň":{"ha":953,"x_min":0,"x_max":0,"o":"m 63 0 l 268 0 l 268 621 l 569 0 l 890 0 l 890 875 l 685 875 l 685 240 l 376 875 l 63 875 z m 421 1115 l 250 1115 l 346 944 l 608 944 l 704 1115 l 533 1115 l 478 1042 z "},"Ņ":{"ha":953,"x_min":0,"x_max":0,"o":"m 63 0 l 268 0 l 268 621 l 569 0 l 890 0 l 890 875 l 685 875 l 685 240 l 376 875 l 63 875 z m 399 -62 b 360 -264 399 -124 385 -201 l 544 -264 b 622 -62 596 -190 617 -129 z "},"Ó":{"ha":985,"x_min":0,"x_max":0,"o":"m 492 -21 b 958 438 739 -21 958 161 b 492 896 958 714 738 896 b 26 438 246 896 26 714 b 492 -21 26 161 244 -21 z m 492 174 b 242 438 356 174 242 278 b 492 701 242 597 356 701 b 743 438 628 701 743 597 b 492 174 743 278 628 174 z m 581 944 l 732 1115 l 499 1115 l 417 944 z "},"Ô":{"ha":985,"x_min":0,"x_max":0,"o":"m 492 -21 b 958 438 739 -21 958 161 b 492 896 958 714 738 896 b 26 438 246 896 26 714 b 492 -21 26 161 244 -21 z m 492 174 b 242 438 356 174 242 278 b 492 701 242 597 356 701 b 743 438 628 701 743 597 b 492 174 743 278 628 174 z m 436 944 l 493 1018 l 549 944 l 719 944 l 624 1115 l 361 1115 l 265 944 z "},"Ö":{"ha":985,"x_min":0,"x_max":0,"o":"m 492 -21 b 958 438 739 -21 958 161 b 492 896 958 714 738 896 b 26 438 246 896 26 714 b 492 -21 26 161 244 -21 z m 492 174 b 242 438 356 174 242 278 b 492 701 242 597 356 701 b 743 438 628 701 743 597 b 492 174 743 278 628 174 z m 353 938 b 463 1053 414 938 463 989 b 353 1165 463 1115 414 1165 b 242 1053 292 1165 242 1115 b 353 938 242 989 292 938 z m 632 938 b 742 1053 693 938 742 989 b 632 1165 742 1115 693 1165 b 521 1053 571 1165 521 1115 b 632 938 521 989 571 938 z "},"Ò":{"ha":985,"x_min":0,"x_max":0,"o":"m 418 944 l 582 944 l 500 1115 l 267 1115 z m 492 -21 b 958 438 739 -21 958 161 b 492 896 958 714 738 896 b 26 438 246 896 26 714 b 492 -21 26 161 244 -21 z m 492 174 b 242 438 356 174 242 278 b 492 701 242 597 356 701 b 743 438 628 701 743 597 b 492 174 743 278 628 174 z "},"Õ":{"ha":985,"x_min":0,"x_max":0,"o":"m 492 -21 b 958 438 739 -21 958 161 b 492 896 958 714 738 896 b 26 438 246 896 26 714 b 492 -21 26 161 244 -21 z m 492 174 b 242 438 356 174 242 278 b 492 701 242 597 356 701 b 743 438 628 701 743 597 b 492 174 743 278 628 174 z m 597 938 b 767 1121 711 938 757 1000 l 624 1121 b 586 1075 624 1088 614 1075 b 383 1128 532 1075 485 1128 b 214 944 269 1128 224 1065 l 357 944 b 394 990 357 976 368 990 b 597 938 446 990 507 938 z "},"Ŏ":{"ha":985,"x_min":0,"x_max":0,"o":"m 492 -21 b 958 438 739 -21 958 161 b 492 896 958 714 738 896 b 26 438 246 896 26 714 b 492 -21 26 161 244 -21 z m 492 174 b 242 438 356 174 242 278 b 492 701 242 597 356 701 b 743 438 628 701 743 597 b 492 174 743 278 628 174 z m 422 1115 l 264 1115 b 492 931 269 1006 356 931 b 721 1115 628 931 715 1004 l 561 1115 b 492 1044 561 1067 536 1044 b 422 1115 447 1044 422 1068 z "},"Ő":{"ha":985,"x_min":0,"x_max":0,"o":"m 492 -21 b 958 438 739 -21 958 161 b 492 896 958 714 738 896 b 26 438 246 896 26 714 b 492 -21 26 161 244 -21 z m 492 174 b 242 438 356 174 242 278 b 492 701 242 597 356 701 b 743 438 628 701 743 597 b 492 174 743 278 628 174 z m 675 944 l 771 1115 l 593 1115 l 522 944 z m 439 944 l 535 1115 l 357 1115 l 286 944 z "},"Ō":{"ha":985,"x_min":0,"x_max":0,"o":"m 492 -21 b 958 438 739 -21 958 161 b 492 896 958 714 738 896 b 26 438 246 896 26 714 b 492 -21 26 161 244 -21 z m 492 174 b 242 438 356 174 242 278 b 492 701 242 597 356 701 b 743 438 628 701 743 597 b 492 174 743 278 628 174 z m 724 972 l 724 1088 l 269 1088 l 269 972 z "},"Ŕ":{"ha":813,"x_min":0,"x_max":0,"o":"m 63 0 l 278 0 l 278 319 l 336 319 l 532 0 l 781 0 l 560 339 b 754 597 683 376 754 469 b 421 875 754 767 644 875 l 63 875 z m 424 701 b 538 597 486 701 538 664 b 419 493 538 532 493 493 l 278 493 l 278 701 z m 469 944 l 621 1115 l 388 1115 l 306 944 z "},"Ř":{"ha":813,"x_min":0,"x_max":0,"o":"m 63 0 l 278 0 l 278 319 l 336 319 l 532 0 l 781 0 l 560 339 b 754 597 683 376 754 469 b 421 875 754 767 644 875 l 63 875 z m 424 701 b 538 597 486 701 538 664 b 419 493 538 532 493 493 l 278 493 l 278 701 z m 324 1115 l 153 1115 l 249 944 l 511 944 l 607 1115 l 436 1115 l 381 1042 z "},"Ŗ":{"ha":813,"x_min":0,"x_max":0,"o":"m 63 0 l 278 0 l 278 319 l 336 319 l 532 0 l 781 0 l 560 339 b 754 597 683 376 754 469 b 421 875 754 767 644 875 l 63 875 z m 424 701 b 538 597 486 701 538 664 b 419 493 538 532 493 493 l 278 493 l 278 701 z m 311 -62 b 272 -264 311 -124 297 -201 l 457 -264 b 535 -62 508 -190 529 -129 z "},"Š":{"ha":744,"x_min":0,"x_max":0,"o":"m 315 1115 l 144 1115 l 240 944 l 503 944 l 599 1115 l 428 1115 l 372 1042 z m 686 599 b 368 894 686 789 558 894 b 60 638 185 894 60 792 b 490 235 60 333 490 386 b 379 157 490 186 449 157 b 253 286 300 157 258 200 l 35 286 b 381 -21 35 89 185 -21 b 703 251 569 -21 703 85 b 271 647 703 564 271 500 b 369 717 271 688 307 717 b 475 599 424 717 474 690 z "},"Ś":{"ha":744,"x_min":0,"x_max":0,"o":"m 686 599 b 368 894 686 789 558 894 b 60 638 185 894 60 792 b 490 235 60 333 490 386 b 379 157 490 186 449 157 b 253 286 300 157 258 200 l 35 286 b 381 -21 35 89 185 -21 b 703 251 569 -21 703 85 b 271 647 703 564 271 500 b 369 717 271 688 307 717 b 475 599 424 717 474 690 z m 461 944 l 613 1115 l 379 1115 l 297 944 z "},"Ş":{"ha":744,"x_min":0,"x_max":0,"o":"m 261 -132 l 318 -169 b 378 -147 344 -153 358 -147 b 426 -189 410 -147 426 -162 b 376 -233 426 -218 407 -233 b 292 -176 344 -233 321 -218 l 203 -233 b 379 -336 247 -306 313 -336 b 538 -192 464 -336 538 -283 b 433 -69 538 -119 494 -69 b 381 -85 413 -69 396 -75 l 417 -19 b 703 251 586 -7 703 96 b 271 647 703 564 271 500 b 369 717 271 688 307 717 b 475 599 424 717 474 690 l 686 599 b 368 894 686 789 558 894 b 60 638 185 894 60 792 b 490 235 60 333 490 386 b 379 157 490 186 449 157 b 253 286 300 157 258 200 l 35 286 b 324 -18 35 108 157 1 z "},"Ŝ":{"ha":744,"x_min":0,"x_max":0,"o":"m 686 599 b 368 894 686 789 558 894 b 60 638 185 894 60 792 b 490 235 60 333 490 386 b 379 157 490 186 449 157 b 253 286 300 157 258 200 l 35 286 b 381 -21 35 89 185 -21 b 703 251 569 -21 703 85 b 271 647 703 564 271 500 b 369 717 271 688 307 717 b 475 599 424 717 474 690 z m 317 944 l 374 1018 l 429 944 l 600 944 l 504 1115 l 242 1115 l 146 944 z "},"Ș":{"ha":744,"x_min":0,"x_max":0,"o":"m 686 599 b 368 894 686 789 558 894 b 60 638 185 894 60 792 b 490 235 60 333 490 386 b 379 157 490 186 449 157 b 253 286 300 157 258 200 l 35 286 b 381 -21 35 89 185 -21 b 703 251 569 -21 703 85 b 271 647 703 564 271 500 b 369 717 271 688 307 717 b 475 599 424 717 474 690 z m 285 -62 b 246 -264 285 -124 271 -201 l 431 -264 b 508 -62 482 -190 503 -129 z "},"Ŧ":{"ha":757,"x_min":0,"x_max":0,"o":"m 271 0 l 486 0 l 486 414 l 660 414 l 660 515 l 486 515 l 486 688 l 736 688 l 736 875 l 21 875 l 21 688 l 271 688 l 271 515 l 97 515 l 97 414 l 271 414 z "},"Ť":{"ha":757,"x_min":0,"x_max":0,"o":"m 271 0 l 486 0 l 486 688 l 736 688 l 736 875 l 21 875 l 21 688 l 271 688 z m 322 1115 l 151 1115 l 247 944 l 510 944 l 606 1115 l 435 1115 l 379 1042 z "},"Ţ":{"ha":757,"x_min":0,"x_max":0,"o":"m 271 0 l 486 0 l 486 688 l 736 688 l 736 875 l 21 875 l 21 688 l 271 688 z m 267 -62 b 228 -264 267 -124 253 -201 l 413 -264 b 490 -62 464 -190 485 -129 z "},"Ț":{"ha":757,"x_min":0,"x_max":0,"o":"m 271 0 l 486 0 l 486 688 l 736 688 l 736 875 l 21 875 l 21 688 l 271 688 z m 267 -62 b 228 -264 267 -124 253 -201 l 413 -264 b 490 -62 464 -190 485 -129 z "},"Ú":{"ha":867,"x_min":0,"x_max":0,"o":"m 63 875 l 63 365 b 433 -21 63 125 200 -21 b 804 365 667 -21 804 125 l 804 875 l 589 875 l 589 367 b 433 174 589 243 535 174 b 278 367 332 174 278 243 l 278 875 z m 524 944 l 675 1115 l 442 1115 l 360 944 z "},"Û":{"ha":867,"x_min":0,"x_max":0,"o":"m 63 875 l 63 365 b 433 -21 63 125 200 -21 b 804 365 667 -21 804 125 l 804 875 l 589 875 l 589 367 b 433 174 589 243 535 174 b 278 367 332 174 278 243 l 278 875 z m 379 944 l 436 1018 l 492 944 l 663 944 l 567 1115 l 304 1115 l 208 944 z "},"Ü":{"ha":867,"x_min":0,"x_max":0,"o":"m 63 875 l 63 365 b 433 -21 63 125 200 -21 b 804 365 667 -21 804 125 l 804 875 l 589 875 l 589 367 b 433 174 589 243 535 174 b 278 367 332 174 278 243 l 278 875 z m 296 938 b 406 1053 357 938 406 989 b 296 1165 406 1115 357 1165 b 185 1053 235 1165 185 1115 b 296 938 185 989 235 938 z m 575 938 b 685 1053 636 938 685 989 b 575 1165 685 1115 636 1165 b 464 1053 514 1165 464 1115 b 575 938 464 989 514 938 z "},"Ù":{"ha":867,"x_min":0,"x_max":0,"o":"m 361 944 l 525 944 l 443 1115 l 210 1115 z m 63 875 l 63 365 b 433 -21 63 125 200 -21 b 804 365 667 -21 804 125 l 804 875 l 589 875 l 589 367 b 433 174 589 243 535 174 b 278 367 332 174 278 243 l 278 875 z "},"Ŭ":{"ha":867,"x_min":0,"x_max":0,"o":"m 63 875 l 63 365 b 433 -21 63 125 200 -21 b 804 365 667 -21 804 125 l 804 875 l 589 875 l 589 367 b 433 174 589 243 535 174 b 278 367 332 174 278 243 l 278 875 z m 365 1115 l 207 1115 b 435 931 213 1006 299 931 b 664 1115 571 931 658 1004 l 504 1115 b 435 1044 504 1067 479 1044 b 365 1115 390 1044 365 1068 z "},"Ű":{"ha":867,"x_min":0,"x_max":0,"o":"m 63 875 l 63 365 b 433 -21 63 125 200 -21 b 804 365 667 -21 804 125 l 804 875 l 589 875 l 589 367 b 433 174 589 243 535 174 b 278 367 332 174 278 243 l 278 875 z m 618 944 l 714 1115 l 536 1115 l 465 944 z m 382 944 l 478 1115 l 300 1115 l 229 944 z "},"Ū":{"ha":867,"x_min":0,"x_max":0,"o":"m 63 875 l 63 365 b 433 -21 63 125 200 -21 b 804 365 667 -21 804 125 l 804 875 l 589 875 l 589 367 b 433 174 589 243 535 174 b 278 367 332 174 278 243 l 278 875 z m 667 972 l 667 1088 l 213 1088 l 213 972 z "},"Ų":{"ha":867,"x_min":0,"x_max":0,"o":"m 63 875 l 63 365 b 401 -19 63 136 188 -7 b 325 -171 354 -60 325 -111 b 485 -315 325 -260 392 -315 b 572 -294 522 -315 551 -306 l 572 -156 b 521 -168 560 -162 543 -168 b 460 -112 481 -168 460 -150 b 574 0 460 -58 508 -26 b 804 365 721 49 804 178 l 804 875 l 589 875 l 589 367 b 433 174 589 243 535 174 b 278 367 332 174 278 243 l 278 875 z "},"Ů":{"ha":867,"x_min":0,"x_max":0,"o":"m 63 875 l 63 365 b 433 -21 63 125 200 -21 b 804 365 667 -21 804 125 l 804 875 l 589 875 l 589 367 b 433 174 589 243 535 174 b 278 367 332 174 278 243 l 278 875 z m 435 874 b 596 1031 524 874 596 942 b 435 1188 596 1118 524 1188 b 275 1031 344 1188 275 1118 b 435 874 275 942 344 874 z m 435 951 b 356 1031 389 951 356 985 b 435 1110 356 1076 389 1110 b 514 1031 481 1110 514 1076 b 435 951 514 985 481 951 z "},"Ũ":{"ha":867,"x_min":0,"x_max":0,"o":"m 63 875 l 63 365 b 433 -21 63 125 200 -21 b 804 365 667 -21 804 125 l 804 875 l 589 875 l 589 367 b 433 174 589 243 535 174 b 278 367 332 174 278 243 l 278 875 z m 540 938 b 710 1121 654 938 700 1000 l 567 1121 b 529 1075 567 1088 557 1075 b 326 1128 475 1075 428 1128 b 157 944 213 1128 167 1065 l 300 944 b 338 990 300 976 311 990 b 540 938 389 990 450 938 z "},"Ẃ":{"ha":1261,"x_min":0,"x_max":0,"o":"m 243 875 l 14 875 l 233 0 l 499 0 l 631 517 l 763 0 l 1028 0 l 1247 875 l 1018 875 l 893 250 l 738 875 l 524 875 l 368 250 z m 731 944 l 882 1115 l 649 1115 l 567 944 z "},"Ŵ":{"ha":1261,"x_min":0,"x_max":0,"o":"m 243 875 l 14 875 l 233 0 l 499 0 l 631 517 l 763 0 l 1028 0 l 1247 875 l 1018 875 l 893 250 l 738 875 l 524 875 l 368 250 z m 586 944 l 643 1018 l 699 944 l 869 944 l 774 1115 l 511 1115 l 415 944 z "},"Ẅ":{"ha":1261,"x_min":0,"x_max":0,"o":"m 243 875 l 14 875 l 233 0 l 499 0 l 631 517 l 763 0 l 1028 0 l 1247 875 l 1018 875 l 893 250 l 738 875 l 524 875 l 368 250 z m 503 938 b 613 1053 564 938 613 989 b 503 1165 613 1115 564 1165 b 392 1053 442 1165 392 1115 b 503 938 392 989 442 938 z m 782 938 b 892 1053 843 938 892 989 b 782 1165 892 1115 843 1165 b 671 1053 721 1165 671 1115 b 782 938 671 989 721 938 z "},"Ẁ":{"ha":1261,"x_min":0,"x_max":0,"o":"m 243 875 l 14 875 l 233 0 l 499 0 l 631 517 l 763 0 l 1028 0 l 1247 875 l 1018 875 l 893 250 l 738 875 l 524 875 l 368 250 z m 556 944 l 719 944 l 638 1115 l 404 1115 z "},"Ý":{"ha":885,"x_min":0,"x_max":0,"o":"m 328 0 l 543 0 l 543 346 l 857 875 l 625 875 l 438 551 l 254 875 l 14 875 l 328 344 z m 525 944 l 676 1115 l 443 1115 l 361 944 z "},"Ÿ":{"ha":885,"x_min":0,"x_max":0,"o":"m 328 0 l 543 0 l 543 346 l 857 875 l 625 875 l 438 551 l 254 875 l 14 875 l 328 344 z m 297 938 b 407 1053 358 938 407 989 b 297 1165 407 1115 358 1165 b 186 1053 236 1165 186 1115 b 297 938 186 989 236 938 z m 576 938 b 686 1053 638 938 686 989 b 576 1165 686 1115 638 1165 b 465 1053 515 1165 465 1115 b 576 938 465 989 515 938 z "},"Ŷ":{"ha":885,"x_min":0,"x_max":0,"o":"m 328 0 l 543 0 l 543 346 l 857 875 l 625 875 l 438 551 l 254 875 l 14 875 l 328 344 z m 381 944 l 438 1018 l 493 944 l 664 944 l 568 1115 l 306 1115 l 210 944 z "},"Ỳ":{"ha":885,"x_min":0,"x_max":0,"o":"m 363 944 l 526 944 l 444 1115 l 211 1115 z m 328 0 l 543 0 l 543 346 l 857 875 l 625 875 l 438 551 l 254 875 l 14 875 l 328 344 z "},"Ž":{"ha":804,"x_min":0,"x_max":0,"o":"m 56 0 l 749 0 l 749 188 l 336 188 l 735 701 l 735 875 l 83 875 l 83 688 l 454 688 l 56 174 z m 356 1115 l 185 1115 l 281 944 l 543 944 l 639 1115 l 468 1115 l 413 1042 z "},"Ź":{"ha":804,"x_min":0,"x_max":0,"o":"m 56 0 l 749 0 l 749 188 l 336 188 l 735 701 l 735 875 l 83 875 l 83 688 l 454 688 l 56 174 z m 501 944 l 653 1115 l 419 1115 l 338 944 z "},"Ż":{"ha":804,"x_min":0,"x_max":0,"o":"m 56 0 l 749 0 l 749 188 l 336 188 l 735 701 l 735 875 l 83 875 l 83 688 l 454 688 l 56 174 z m 413 944 b 543 1075 485 944 543 1003 b 413 1204 543 1147 485 1204 b 282 1075 340 1204 282 1147 b 413 944 282 1003 340 944 z "},"á":{"ha":774,"x_min":0,"x_max":0,"o":"m 33 306 b 297 -21 33 96 154 -21 b 497 81 379 -21 453 13 l 497 0 l 711 0 l 711 611 l 497 611 l 497 531 b 297 632 453 599 379 632 b 33 306 154 632 33 515 z m 374 458 b 500 306 450 458 500 403 b 374 153 500 208 449 153 b 247 306 293 153 247 218 b 374 458 247 393 293 458 z m 440 708 l 594 914 l 368 914 l 281 708 z "},"â":{"ha":774,"x_min":0,"x_max":0,"o":"m 33 306 b 297 -21 33 96 154 -21 b 497 81 379 -21 453 13 l 497 0 l 711 0 l 711 611 l 497 611 l 497 531 b 297 632 453 599 379 632 b 33 306 154 632 33 515 z m 374 458 b 500 306 450 458 500 403 b 374 153 500 208 449 153 b 247 306 293 153 247 218 b 374 458 247 393 293 458 z m 319 708 l 376 794 l 432 708 l 613 708 l 469 914 l 282 914 l 139 708 z "},"ä":{"ha":774,"x_min":0,"x_max":0,"o":"m 33 306 b 297 -21 33 96 154 -21 b 497 81 379 -21 453 13 l 497 0 l 711 0 l 711 611 l 497 611 l 497 531 b 297 632 453 599 379 632 b 33 306 154 632 33 515 z m 374 458 b 500 306 450 458 500 403 b 374 153 500 208 449 153 b 247 306 293 153 247 218 b 374 458 247 393 293 458 z m 254 701 b 361 817 314 701 361 753 b 254 929 361 879 314 929 b 146 817 194 929 146 879 b 254 701 146 753 194 701 z m 525 701 b 632 817 585 701 632 753 b 525 929 632 879 585 929 b 418 817 467 929 418 879 b 525 701 418 753 467 701 z "},"à":{"ha":774,"x_min":0,"x_max":0,"o":"m 33 306 b 297 -21 33 96 154 -21 b 497 81 379 -21 453 13 l 497 0 l 711 0 l 711 611 l 497 611 l 497 531 b 297 632 453 599 379 632 b 33 306 154 632 33 515 z m 374 458 b 500 306 450 458 500 403 b 374 153 500 208 449 153 b 247 306 293 153 247 218 b 374 458 247 393 293 458 z m 310 708 l 469 708 l 382 914 l 156 914 z "},"å":{"ha":774,"x_min":0,"x_max":0,"o":"m 33 306 b 297 -21 33 96 154 -21 b 497 81 379 -21 453 13 l 497 0 l 711 0 l 711 611 l 497 611 l 497 531 b 297 632 453 599 379 632 b 33 306 154 632 33 515 z m 374 458 b 500 306 450 458 500 403 b 374 153 500 208 449 153 b 247 306 293 153 247 218 b 374 458 247 393 293 458 z m 375 675 b 538 833 464 675 538 744 b 375 992 538 921 464 992 b 214 833 285 992 214 921 b 375 675 214 744 285 675 z m 375 761 b 303 833 333 761 303 792 b 375 906 303 875 333 906 b 447 833 417 906 447 875 b 375 761 447 792 417 761 z "},"ã":{"ha":774,"x_min":0,"x_max":0,"o":"m 33 306 b 297 -21 33 96 154 -21 b 497 81 379 -21 453 13 l 497 0 l 711 0 l 711 611 l 497 611 l 497 531 b 297 632 453 599 379 632 b 33 306 154 632 33 515 z m 374 458 b 500 306 450 458 500 403 b 374 153 500 208 449 153 b 247 306 293 153 247 218 b 374 458 247 393 293 458 z m 496 701 b 665 913 599 701 656 772 l 515 913 b 478 846 515 860 503 846 b 268 919 426 846 364 919 b 99 708 165 919 108 849 l 249 708 b 286 775 249 761 263 775 b 496 701 340 775 400 701 z "},"ă":{"ha":774,"x_min":0,"x_max":0,"o":"m 33 306 b 297 -21 33 96 154 -21 b 497 81 379 -21 453 13 l 497 0 l 711 0 l 711 611 l 497 611 l 497 531 b 297 632 453 599 379 632 b 33 306 154 632 33 515 z m 374 458 b 500 306 450 458 500 403 b 374 153 500 208 449 153 b 247 306 293 153 247 218 b 374 458 247 393 293 458 z m 303 913 l 144 913 b 375 699 151 785 238 699 b 607 913 513 699 600 785 l 447 913 b 375 819 447 849 421 819 b 303 913 329 819 303 849 z "},"ā":{"ha":774,"x_min":0,"x_max":0,"o":"m 33 306 b 297 -21 33 96 154 -21 b 497 81 379 -21 453 13 l 497 0 l 711 0 l 711 611 l 497 611 l 497 531 b 297 632 453 599 379 632 b 33 306 154 632 33 515 z m 374 458 b 500 306 450 458 500 403 b 374 153 500 208 449 153 b 247 306 293 153 247 218 b 374 458 247 393 293 458 z m 607 743 l 607 858 l 153 858 l 153 743 z "},"ą":{"ha":774,"x_min":0,"x_max":0,"o":"m 33 306 b 297 -21 33 96 154 -21 b 497 81 379 -21 453 13 l 497 0 l 563 0 b 456 -171 499 -40 456 -100 b 622 -322 456 -264 525 -322 b 710 -301 660 -322 689 -312 l 710 -156 b 658 -168 697 -162 681 -168 b 597 -112 618 -168 597 -150 b 711 0 597 -58 646 -26 l 711 611 l 497 611 l 497 531 b 297 632 453 599 379 632 b 33 306 154 632 33 515 z m 374 458 b 500 306 450 458 500 403 b 374 153 500 208 449 153 b 247 306 293 153 247 218 b 374 458 247 393 293 458 z "},"ç":{"ha":707,"x_min":0,"x_max":0,"o":"m 247 -132 l 304 -169 b 364 -147 331 -153 344 -147 b 413 -189 396 -147 413 -162 b 363 -233 413 -218 393 -233 b 278 -176 331 -233 307 -218 l 189 -233 b 365 -336 233 -306 299 -336 b 524 -192 450 -336 524 -283 b 419 -69 524 -119 481 -69 b 367 -85 399 -69 382 -75 l 403 -18 b 682 246 525 -6 657 65 l 463 246 b 361 146 456 179 411 146 b 244 306 297 146 244 199 b 361 465 244 413 297 465 b 463 365 411 465 457 433 l 682 365 b 361 632 653 567 492 632 b 31 306 197 632 31 531 b 310 -18 31 104 164 1 z "},"ć":{"ha":707,"x_min":0,"x_max":0,"o":"m 244 306 b 361 465 244 413 297 465 b 463 365 411 465 457 433 l 682 365 b 361 632 653 567 492 632 b 31 306 197 632 31 531 b 361 -21 31 81 197 -21 b 682 246 493 -21 654 44 l 463 246 b 361 146 456 179 411 146 b 244 306 297 146 244 199 z m 426 708 l 581 914 l 354 914 l 267 708 z "},"č":{"ha":707,"x_min":0,"x_max":0,"o":"m 244 306 b 361 465 244 413 297 465 b 463 365 411 465 457 433 l 682 365 b 361 632 653 567 492 632 b 31 306 197 632 31 531 b 361 -21 31 81 197 -21 b 682 246 493 -21 654 44 l 463 246 b 361 146 456 179 411 146 b 244 306 297 146 244 199 z m 304 914 l 124 914 l 267 708 l 454 708 l 597 914 l 417 914 l 361 828 z "},"ĉ":{"ha":707,"x_min":0,"x_max":0,"o":"m 244 306 b 361 465 244 413 297 465 b 463 365 411 465 457 433 l 682 365 b 361 632 653 567 492 632 b 31 306 197 632 31 531 b 361 -21 31 81 197 -21 b 682 246 493 -21 654 44 l 463 246 b 361 146 456 179 411 146 b 244 306 297 146 244 199 z m 306 708 l 363 794 l 418 708 l 599 708 l 456 914 l 268 914 l 125 708 z "},"ċ":{"ha":707,"x_min":0,"x_max":0,"o":"m 244 306 b 361 465 244 413 297 465 b 463 365 411 465 457 433 l 682 365 b 361 632 653 567 492 632 b 31 306 197 632 31 531 b 361 -21 31 81 197 -21 b 682 246 493 -21 654 44 l 463 246 b 361 146 456 179 411 146 b 244 306 297 146 244 199 z m 358 685 b 489 815 431 685 489 743 b 358 944 489 888 431 944 b 228 815 286 944 228 888 b 358 685 228 743 286 685 z "},"ď":{"ha":774,"x_min":0,"x_max":0,"o":"m 33 306 b 297 -21 33 96 154 -21 b 497 81 379 -21 453 13 l 497 0 l 711 0 l 711 944 l 497 944 l 497 531 b 297 632 453 599 379 632 b 33 306 154 632 33 515 z m 374 458 b 500 306 450 458 500 401 b 374 153 500 210 449 153 b 247 306 293 153 247 218 b 374 458 247 393 293 458 z m 901 701 l 1000 944 l 801 944 l 781 701 z "},"đ":{"ha":774,"x_min":0,"x_max":0,"o":"m 33 306 b 297 -21 33 96 154 -21 b 497 81 379 -21 453 13 l 497 0 l 711 0 l 711 699 l 794 699 l 794 814 l 711 814 l 711 944 l 497 944 l 497 814 l 340 814 l 340 699 l 497 699 l 497 531 b 297 632 453 599 379 632 b 33 306 154 632 33 515 z m 374 458 b 500 306 450 458 500 401 b 374 153 500 210 449 153 b 247 306 293 153 247 218 b 374 458 247 393 293 458 z "},"é":{"ha":710,"x_min":0,"x_max":0,"o":"m 361 -21 b 674 204 513 -21 644 56 l 463 204 b 361 139 453 165 422 139 b 242 256 299 139 254 167 l 678 256 b 682 324 681 279 682 300 b 360 632 682 503 563 632 b 31 306 167 632 31 497 b 361 -21 31 114 168 -21 z m 357 472 b 474 375 422 472 467 440 l 239 375 b 357 472 250 444 293 472 z m 426 708 l 581 914 l 354 914 l 267 708 z "},"ê":{"ha":710,"x_min":0,"x_max":0,"o":"m 361 -21 b 674 204 513 -21 644 56 l 463 204 b 361 139 453 165 422 139 b 242 256 299 139 254 167 l 678 256 b 682 324 681 279 682 300 b 360 632 682 503 563 632 b 31 306 167 632 31 497 b 361 -21 31 114 168 -21 z m 357 472 b 474 375 422 472 467 440 l 239 375 b 357 472 250 444 293 472 z m 306 708 l 363 794 l 418 708 l 599 708 l 456 914 l 268 914 l 125 708 z "},"ë":{"ha":710,"x_min":0,"x_max":0,"o":"m 361 -21 b 674 204 513 -21 644 56 l 463 204 b 361 139 453 165 422 139 b 242 256 299 139 254 167 l 678 256 b 682 324 681 279 682 300 b 360 632 682 503 563 632 b 31 306 167 632 31 497 b 361 -21 31 114 168 -21 z m 357 472 b 474 375 422 472 467 440 l 239 375 b 357 472 250 444 293 472 z m 226 701 b 333 817 286 701 333 753 b 226 929 333 879 286 929 b 118 817 167 929 118 879 b 226 701 118 753 167 701 z m 497 701 b 604 817 557 701 604 753 b 497 929 604 879 557 929 b 390 817 439 929 390 879 b 497 701 390 753 439 701 z "},"è":{"ha":710,"x_min":0,"x_max":0,"o":"m 361 -21 b 674 204 513 -21 644 56 l 463 204 b 361 139 453 165 422 139 b 242 256 299 139 254 167 l 678 256 b 682 324 681 279 682 300 b 360 632 682 503 563 632 b 31 306 167 632 31 497 b 361 -21 31 114 168 -21 z m 357 472 b 474 375 422 472 467 440 l 239 375 b 357 472 250 444 293 472 z m 296 708 l 456 708 l 368 914 l 142 914 z "},"ĕ":{"ha":710,"x_min":0,"x_max":0,"o":"m 361 -21 b 674 204 513 -21 644 56 l 463 204 b 361 139 453 165 422 139 b 242 256 299 139 254 167 l 678 256 b 682 324 681 279 682 300 b 360 632 682 503 563 632 b 31 306 167 632 31 497 b 361 -21 31 114 168 -21 z m 357 472 b 474 375 422 472 467 440 l 239 375 b 357 472 250 444 293 472 z m 289 913 l 131 913 b 361 699 138 785 224 699 b 593 913 499 699 586 785 l 433 913 b 361 819 433 849 407 819 b 289 913 315 819 289 849 z "},"ě":{"ha":710,"x_min":0,"x_max":0,"o":"m 361 -21 b 674 204 513 -21 644 56 l 463 204 b 361 139 453 165 422 139 b 242 256 299 139 254 167 l 678 256 b 682 324 681 279 682 300 b 360 632 682 503 563 632 b 31 306 167 632 31 497 b 361 -21 31 114 168 -21 z m 357 472 b 474 375 422 472 467 440 l 239 375 b 357 472 250 444 293 472 z m 304 914 l 124 914 l 267 708 l 454 708 l 597 914 l 417 914 l 361 828 z "},"ė":{"ha":710,"x_min":0,"x_max":0,"o":"m 361 -21 b 674 204 513 -21 644 56 l 463 204 b 361 139 453 165 422 139 b 242 256 299 139 254 167 l 678 256 b 682 324 681 279 682 300 b 360 632 682 503 563 632 b 31 306 167 632 31 497 b 361 -21 31 114 168 -21 z m 357 472 b 474 375 422 472 467 440 l 239 375 b 357 472 250 444 293 472 z m 358 685 b 489 815 431 685 489 743 b 358 944 489 888 431 944 b 228 815 286 944 228 888 b 358 685 228 743 286 685 z "},"ē":{"ha":710,"x_min":0,"x_max":0,"o":"m 361 -21 b 674 204 513 -21 644 56 l 463 204 b 361 139 453 165 422 139 b 242 256 299 139 254 167 l 678 256 b 682 324 681 279 682 300 b 360 632 682 503 563 632 b 31 306 167 632 31 497 b 361 -21 31 114 168 -21 z m 357 472 b 474 375 422 472 467 440 l 239 375 b 357 472 250 444 293 472 z m 593 743 l 593 858 l 139 858 l 139 743 z "},"ę":{"ha":710,"x_min":0,"x_max":0,"o":"m 515 -301 l 515 -156 b 464 -168 503 -162 486 -168 b 403 -112 424 -168 403 -150 b 501 4 403 -71 428 -37 l 531 21 b 674 204 606 64 650 113 l 463 204 b 361 139 453 165 422 139 b 242 256 299 139 254 167 l 678 256 b 682 324 681 279 682 300 b 360 632 682 503 563 632 b 31 306 167 632 31 497 b 335 -21 31 125 156 -8 b 261 -178 281 -81 261 -132 b 428 -322 261 -267 331 -322 b 515 -301 465 -322 494 -312 z m 357 472 b 474 375 422 472 467 440 l 239 375 b 357 472 250 444 293 472 z "},"ğ":{"ha":776,"x_min":0,"x_max":0,"o":"m 36 310 b 174 26 36 179 96 79 l 25 -47 b 365 -264 96 -192 215 -264 b 714 107 588 -264 714 -118 l 714 611 l 500 611 l 500 531 b 300 632 456 599 382 632 b 36 310 157 632 36 517 z m 376 458 b 503 310 453 458 503 404 b 376 161 503 215 451 161 b 250 310 296 161 250 225 b 376 458 250 394 296 458 z m 299 -12 b 507 106 394 -12 467 31 l 507 88 b 365 -90 507 -40 456 -90 b 224 1 304 -90 253 -64 b 299 -12 249 -8 274 -12 z m 306 913 l 147 913 b 378 699 154 785 240 699 b 610 913 515 699 603 785 l 450 913 b 378 819 450 849 424 819 b 306 913 332 819 306 849 z "},"ĝ":{"ha":776,"x_min":0,"x_max":0,"o":"m 36 310 b 174 26 36 179 96 79 l 25 -47 b 365 -264 96 -192 215 -264 b 714 107 588 -264 714 -118 l 714 611 l 500 611 l 500 531 b 300 632 456 599 382 632 b 36 310 157 632 36 517 z m 376 458 b 503 310 453 458 503 404 b 376 161 503 215 451 161 b 250 310 296 161 250 225 b 376 458 250 394 296 458 z m 299 -12 b 507 106 394 -12 467 31 l 507 88 b 365 -90 507 -40 456 -90 b 224 1 304 -90 253 -64 b 299 -12 249 -8 274 -12 z m 322 708 l 379 794 l 435 708 l 615 708 l 472 914 l 285 914 l 142 708 z "},"ģ":{"ha":776,"x_min":0,"x_max":0,"o":"m 36 310 b 174 26 36 179 96 79 l 25 -47 b 365 -264 96 -192 215 -264 b 714 107 588 -264 714 -118 l 714 611 l 500 611 l 500 531 b 300 632 456 599 382 632 b 36 310 157 632 36 517 z m 376 458 b 503 310 453 458 503 404 b 376 161 503 215 451 161 b 250 310 296 161 250 225 b 376 458 250 394 296 458 z m 299 -12 b 507 106 394 -12 467 31 l 507 88 b 365 -90 507 -40 456 -90 b 224 1 304 -90 253 -64 b 299 -12 249 -8 274 -12 z m 489 708 b 528 910 489 769 503 847 l 343 910 b 265 708 292 836 271 775 z "},"ġ":{"ha":776,"x_min":0,"x_max":0,"o":"m 36 310 b 174 26 36 179 96 79 l 25 -47 b 365 -264 96 -192 215 -264 b 714 107 588 -264 714 -118 l 714 611 l 500 611 l 500 531 b 300 632 456 599 382 632 b 36 310 157 632 36 517 z m 376 458 b 503 310 453 458 503 404 b 376 161 503 215 451 161 b 250 310 296 161 250 225 b 376 458 250 394 296 458 z m 299 -12 b 507 106 394 -12 467 31 l 507 88 b 365 -90 507 -40 456 -90 b 224 1 304 -90 253 -64 b 299 -12 249 -8 274 -12 z m 375 685 b 506 815 447 685 506 743 b 375 944 506 888 447 944 b 244 815 303 944 244 888 b 375 685 244 743 303 685 z "},"ħ":{"ha":740,"x_min":0,"x_max":0,"o":"m 63 0 l 276 0 l 276 335 b 382 458 276 421 317 458 b 474 335 442 458 474 418 l 474 0 l 688 0 l 688 356 b 456 632 688 529 599 632 b 276 531 378 632 315 596 l 276 699 l 438 699 l 438 814 l 276 814 l 276 944 l 63 944 l 63 814 l -17 814 l -17 699 l 63 699 z "},"ĥ":{"ha":740,"x_min":0,"x_max":0,"o":"m 63 0 l 276 0 l 276 335 b 382 458 276 421 317 458 b 474 335 442 458 474 418 l 474 0 l 688 0 l 688 356 b 456 632 688 529 599 632 b 276 531 378 632 315 596 l 276 944 l 63 944 z m 110 1042 l 167 1128 l 222 1042 l 403 1042 l 260 1247 l 72 1247 l -71 1042 z "},"í":{"ha":339,"x_min":0,"x_max":0,"o":"m 250 708 l 383 914 l 157 914 l 90 708 z m 63 0 l 276 0 l 276 611 l 63 611 z "},"î":{"ha":339,"x_min":0,"x_max":0,"o":"m 111 708 l 168 803 l 224 708 l 390 708 l 264 914 l 71 914 l -56 708 z m 63 0 l 276 0 l 276 611 l 63 611 z "},"ï":{"ha":339,"x_min":0,"x_max":0,"o":"m 46 701 b 153 817 106 701 153 753 b 46 929 153 879 106 929 b -62 817 -14 929 -62 879 b 46 701 -62 753 -14 701 z m 289 701 b 396 817 349 701 396 753 b 289 929 396 879 349 929 b 182 817 231 929 182 879 b 289 701 182 753 231 701 z m 63 0 l 276 0 l 276 611 l 63 611 z "},"ì":{"ha":339,"x_min":0,"x_max":0,"o":"m 89 708 l 249 708 l 182 914 l -44 914 z m 63 0 l 276 0 l 276 611 l 63 611 z "},"ĭ":{"ha":339,"x_min":0,"x_max":0,"o":"m 63 0 l 276 0 l 276 611 l 63 611 z m 96 913 l -62 913 b 168 699 -56 785 31 699 b 400 913 306 699 393 785 l 240 913 b 168 819 240 849 214 819 b 96 913 122 819 96 849 z "},"ī":{"ha":339,"x_min":0,"x_max":0,"o":"m 63 0 l 276 0 l 276 611 l 63 611 z m 399 743 l 399 858 l -56 858 l -56 743 z "},"į":{"ha":339,"x_min":0,"x_max":0,"o":"m 169 685 b 300 815 242 685 300 743 b 169 946 300 889 242 946 b 39 815 97 946 39 889 b 169 685 39 743 97 685 z m 63 0 l 128 0 b 21 -171 64 -40 21 -100 b 188 -322 21 -264 90 -322 b 275 -301 225 -322 254 -312 l 275 -156 b 224 -168 263 -162 246 -168 b 163 -112 183 -168 163 -150 b 276 0 163 -58 211 -26 l 276 611 l 63 611 z "},"ĩ":{"ha":339,"x_min":0,"x_max":0,"o":"m 263 701 b 411 913 353 701 401 772 l 282 913 b 244 846 282 860 269 846 b 76 919 204 846 153 919 b -72 708 -14 919 -62 849 l 57 708 b 94 775 57 761 71 775 b 263 701 136 775 186 701 z m 63 0 l 276 0 l 276 611 l 63 611 z "},"ĳ":{"ha":678,"x_min":0,"x_max":0,"o":"m 169 685 b 300 815 242 685 300 743 b 169 946 300 889 242 946 b 39 815 97 946 39 889 b 169 685 39 743 97 685 z m 63 0 l 276 0 l 276 611 l 63 611 z m 508 685 b 639 815 581 685 639 743 b 508 946 639 889 581 946 b 378 815 436 946 378 889 b 508 685 378 743 436 685 z m 401 -14 b 339 -78 401 -61 388 -78 b 257 -69 317 -78 285 -76 l 257 -249 b 375 -264 290 -256 336 -264 b 615 -46 526 -264 615 -201 l 615 611 l 401 611 z "},"ĵ":{"ha":339,"x_min":0,"x_max":0,"o":"m 111 708 l 168 803 l 224 708 l 390 708 l 264 914 l 71 914 l -56 708 z m 63 -14 b 0 -78 63 -61 49 -78 b -82 -69 -22 -78 -54 -76 l -82 -249 b 36 -264 -49 -256 -3 -264 b 276 -46 188 -264 276 -201 l 276 611 l 63 611 z "},"ķ":{"ha":743,"x_min":0,"x_max":0,"o":"m 63 0 l 276 0 l 276 264 l 475 0 l 736 0 l 478 322 l 717 611 l 483 611 l 276 371 l 276 944 l 63 944 z m 285 -62 b 246 -264 285 -124 271 -201 l 431 -264 b 508 -62 482 -190 503 -129 z "},"ĺ":{"ha":339,"x_min":0,"x_max":0,"o":"m 63 0 l 276 0 l 276 944 l 63 944 z m 249 1042 l 403 1247 l 176 1247 l 89 1042 z "},"ľ":{"ha":339,"x_min":0,"x_max":0,"o":"m 63 0 l 276 0 l 276 944 l 63 944 z m 467 701 l 565 944 l 367 944 l 346 701 z "},"ļ":{"ha":339,"x_min":0,"x_max":0,"o":"m 63 0 l 276 0 l 276 944 l 63 944 z m 58 -62 b 19 -264 58 -124 44 -201 l 204 -264 b 282 -62 256 -190 276 -129 z "},"ŀ":{"ha":581,"x_min":0,"x_max":0,"o":"m 63 0 l 276 0 l 276 944 l 63 944 z m 465 333 b 596 464 538 333 596 392 b 465 593 596 536 538 593 b 335 464 393 593 335 536 b 465 333 335 392 393 333 z "},"ñ":{"ha":740,"x_min":0,"x_max":0,"o":"m 63 0 l 276 0 l 276 335 b 382 458 276 421 317 458 b 474 335 442 458 474 418 l 474 0 l 688 0 l 688 356 b 456 632 688 529 599 632 b 276 531 378 632 315 596 l 276 611 l 63 611 z m 494 701 b 664 913 597 701 654 772 l 514 913 b 476 846 514 860 501 846 b 267 919 425 846 363 919 b 97 708 164 919 107 849 l 247 708 b 285 775 247 761 261 775 b 494 701 339 775 399 701 z "},"ń":{"ha":740,"x_min":0,"x_max":0,"o":"m 63 0 l 276 0 l 276 335 b 382 458 276 421 317 458 b 474 335 442 458 474 418 l 474 0 l 688 0 l 688 356 b 456 632 688 529 599 632 b 276 531 378 632 315 596 l 276 611 l 63 611 z m 439 708 l 593 914 l 367 914 l 279 708 z "},"ň":{"ha":740,"x_min":0,"x_max":0,"o":"m 63 0 l 276 0 l 276 335 b 382 458 276 421 317 458 b 474 335 442 458 474 418 l 474 0 l 688 0 l 688 356 b 456 632 688 529 599 632 b 276 531 378 632 315 596 l 276 611 l 63 611 z m 317 914 l 136 914 l 279 708 l 467 708 l 610 914 l 429 914 l 374 828 z "},"ņ":{"ha":740,"x_min":0,"x_max":0,"o":"m 63 0 l 276 0 l 276 335 b 382 458 276 421 317 458 b 474 335 442 458 474 418 l 474 0 l 688 0 l 688 356 b 456 632 688 529 599 632 b 276 531 378 632 315 596 l 276 611 l 63 611 z m 268 -62 b 229 -264 268 -124 254 -201 l 414 -264 b 492 -62 465 -190 486 -129 z "},"ó":{"ha":731,"x_min":0,"x_max":0,"o":"m 365 -21 b 700 306 550 -21 700 113 b 365 632 700 499 549 632 b 31 306 182 632 31 499 b 365 -21 31 113 181 -21 z m 365 160 b 244 306 288 160 244 219 b 365 451 244 392 289 451 b 486 306 442 451 486 392 b 365 160 486 219 443 160 z m 432 708 l 586 914 l 360 914 l 272 708 z "},"ô":{"ha":731,"x_min":0,"x_max":0,"o":"m 365 -21 b 700 306 550 -21 700 113 b 365 632 700 499 549 632 b 31 306 182 632 31 499 b 365 -21 31 113 181 -21 z m 365 160 b 244 306 288 160 244 219 b 365 451 244 392 289 451 b 486 306 442 451 486 392 b 365 160 486 219 443 160 z m 311 708 l 368 794 l 424 708 l 604 708 l 461 914 l 274 914 l 131 708 z "},"ö":{"ha":731,"x_min":0,"x_max":0,"o":"m 365 -21 b 700 306 550 -21 700 113 b 365 632 700 499 549 632 b 31 306 182 632 31 499 b 365 -21 31 113 181 -21 z m 365 160 b 244 306 288 160 244 219 b 365 451 244 392 289 451 b 486 306 442 451 486 392 b 365 160 486 219 443 160 z m 232 701 b 339 817 292 701 339 753 b 232 929 339 879 292 929 b 124 817 172 929 124 879 b 232 701 124 753 172 701 z m 503 701 b 610 817 563 701 610 753 b 503 929 610 879 563 929 b 396 817 444 929 396 879 b 503 701 396 753 444 701 z "},"ò":{"ha":731,"x_min":0,"x_max":0,"o":"m 365 -21 b 700 306 550 -21 700 113 b 365 632 700 499 549 632 b 31 306 182 632 31 499 b 365 -21 31 113 181 -21 z m 365 160 b 244 306 288 160 244 219 b 365 451 244 392 289 451 b 486 306 442 451 486 392 b 365 160 486 219 443 160 z m 301 708 l 461 708 l 374 914 l 147 914 z "},"õ":{"ha":731,"x_min":0,"x_max":0,"o":"m 365 -21 b 700 306 550 -21 700 113 b 365 632 700 499 549 632 b 31 306 182 632 31 499 b 365 -21 31 113 181 -21 z m 365 160 b 244 306 288 160 244 219 b 365 451 244 392 289 451 b 486 306 442 451 486 392 b 365 160 486 219 443 160 z m 488 701 b 657 913 590 701 647 772 l 507 913 b 469 846 507 860 494 846 b 260 919 418 846 356 919 b 90 708 157 919 100 849 l 240 708 b 278 775 240 761 254 775 b 488 701 332 775 392 701 z "},"ŏ":{"ha":731,"x_min":0,"x_max":0,"o":"m 365 -21 b 700 306 550 -21 700 113 b 365 632 700 499 549 632 b 31 306 182 632 31 499 b 365 -21 31 113 181 -21 z m 365 160 b 244 306 288 160 244 219 b 365 451 244 392 289 451 b 486 306 442 451 486 392 b 365 160 486 219 443 160 z m 294 913 l 136 913 b 367 699 143 785 229 699 b 599 913 504 699 592 785 l 439 913 b 367 819 439 849 413 819 b 294 913 321 819 294 849 z "},"ő":{"ha":731,"x_min":0,"x_max":0,"o":"m 365 -21 b 700 306 550 -21 700 113 b 365 632 700 499 549 632 b 31 306 182 632 31 499 b 365 -21 31 113 181 -21 z m 365 160 b 244 306 288 160 244 219 b 365 451 244 392 289 451 b 486 306 442 451 486 392 b 365 160 486 219 443 160 z m 550 708 l 663 914 l 485 914 l 397 708 z m 314 708 l 426 914 l 249 914 l 161 708 z "},"ō":{"ha":731,"x_min":0,"x_max":0,"o":"m 365 -21 b 700 306 550 -21 700 113 b 365 632 700 499 549 632 b 31 306 182 632 31 499 b 365 -21 31 113 181 -21 z m 365 160 b 244 306 288 160 244 219 b 365 451 244 392 289 451 b 486 306 442 451 486 392 b 365 160 486 219 443 160 z m 599 743 l 599 858 l 144 858 l 144 743 z "},"ŕ":{"ha":567,"x_min":0,"x_max":0,"o":"m 63 0 l 276 0 l 276 285 b 443 426 276 376 314 426 b 543 417 481 426 510 422 l 543 626 b 486 632 529 629 508 632 b 276 489 393 632 318 585 l 276 611 l 63 611 z m 363 708 l 517 914 l 290 914 l 203 708 z "},"ř":{"ha":567,"x_min":0,"x_max":0,"o":"m 63 0 l 276 0 l 276 285 b 443 426 276 376 314 426 b 543 417 481 426 510 422 l 543 626 b 486 632 529 629 508 632 b 276 489 393 632 318 585 l 276 611 l 63 611 z m 219 914 l 39 914 l 182 708 l 369 708 l 513 914 l 332 914 l 276 828 z "},"ŗ":{"ha":567,"x_min":0,"x_max":0,"o":"m 63 0 l 276 0 l 276 285 b 443 426 276 376 314 426 b 543 417 481 426 510 422 l 543 626 b 486 632 529 629 508 632 b 276 489 393 632 318 585 l 276 611 l 63 611 z m 57 -62 b 18 -264 57 -124 43 -201 l 203 -264 b 281 -62 254 -190 275 -129 z "},"š":{"ha":636,"x_min":0,"x_max":0,"o":"m 585 432 b 315 632 571 568 467 632 b 47 435 149 632 47 554 b 233 246 47 340 99 275 l 351 221 b 401 176 389 213 401 196 b 332 125 401 143 372 125 b 242 199 279 125 244 150 l 32 199 b 326 -21 40 71 150 -21 b 610 199 490 -21 610 72 b 464 372 610 289 572 350 l 328 400 b 256 450 267 413 256 425 b 310 486 256 475 279 486 b 382 432 349 486 382 469 z m 258 914 l 78 914 l 221 708 l 408 708 l 551 914 l 371 914 l 315 828 z "},"ś":{"ha":636,"x_min":0,"x_max":0,"o":"m 585 432 b 315 632 571 568 467 632 b 47 435 149 632 47 554 b 233 246 47 340 99 275 l 351 221 b 401 176 389 213 401 196 b 332 125 401 143 372 125 b 242 199 279 125 244 150 l 32 199 b 326 -21 40 71 150 -21 b 610 199 490 -21 610 72 b 464 372 610 289 572 350 l 328 400 b 256 450 267 413 256 425 b 310 486 256 475 279 486 b 382 432 349 486 382 469 z m 367 708 l 521 914 l 294 914 l 207 708 z "},"ş":{"ha":636,"x_min":0,"x_max":0,"o":"m 192 -132 l 249 -169 b 308 -147 275 -153 289 -147 b 357 -189 340 -147 357 -162 b 307 -233 357 -218 338 -233 b 222 -176 275 -233 251 -218 l 133 -233 b 310 -336 178 -306 243 -336 b 468 -192 394 -336 468 -283 b 364 -69 468 -119 425 -69 b 311 -85 343 -69 326 -75 l 346 -21 b 610 199 500 -14 610 78 b 464 372 610 289 572 350 l 328 400 b 256 450 267 413 256 425 b 310 486 256 475 279 486 b 382 432 349 486 382 469 l 585 432 b 315 632 571 568 467 632 b 47 435 149 632 47 554 b 233 246 47 340 99 275 l 351 221 b 401 176 389 213 401 196 b 332 125 401 143 372 125 b 242 199 279 125 244 150 l 32 199 b 256 -15 39 89 121 6 z "},"ŝ":{"ha":636,"x_min":0,"x_max":0,"o":"m 585 432 b 315 632 571 568 467 632 b 47 435 149 632 47 554 b 233 246 47 340 99 275 l 351 221 b 401 176 389 213 401 196 b 332 125 401 143 372 125 b 242 199 279 125 244 150 l 32 199 b 326 -21 40 71 150 -21 b 610 199 490 -21 610 72 b 464 372 610 289 572 350 l 328 400 b 256 450 267 413 256 425 b 310 486 256 475 279 486 b 382 432 349 486 382 469 z m 253 708 l 310 794 l 365 708 l 546 708 l 403 914 l 215 914 l 72 708 z "},"ș":{"ha":636,"x_min":0,"x_max":0,"o":"m 585 432 b 315 632 571 568 467 632 b 47 435 149 632 47 554 b 233 246 47 340 99 275 l 351 221 b 401 176 389 213 401 196 b 332 125 401 143 372 125 b 242 199 279 125 244 150 l 32 199 b 326 -21 40 71 150 -21 b 610 199 490 -21 610 72 b 464 372 610 289 572 350 l 328 400 b 256 450 267 413 256 425 b 310 486 256 475 279 486 b 382 432 349 486 382 469 z m 215 -62 b 176 -264 215 -124 201 -201 l 361 -264 b 439 -62 413 -190 433 -129 z "},"ŧ":{"ha":561,"x_min":0,"x_max":0,"o":"m 0 444 l 129 444 l 129 382 l 28 382 l 28 267 l 129 267 l 129 226 b 382 -21 129 47 215 -21 b 519 -7 426 -21 478 -17 l 519 178 b 425 167 492 174 457 167 b 343 242 371 167 343 182 l 343 267 l 482 267 l 482 382 l 343 382 l 343 444 l 519 444 l 519 611 l 343 611 l 343 847 l 129 847 l 129 611 l 0 611 z "},"ť":{"ha":561,"x_min":0,"x_max":0,"o":"m 0 444 l 129 444 l 129 226 b 382 -21 129 47 215 -21 b 519 -7 426 -21 478 -17 l 519 178 b 425 167 492 174 457 167 b 343 242 371 167 343 182 l 343 444 l 519 444 l 519 611 l 343 611 l 343 847 l 129 847 l 129 611 l 0 611 z m 501 657 l 600 900 l 401 900 l 381 657 z "},"ţ":{"ha":561,"x_min":0,"x_max":0,"o":"m 0 444 l 129 444 l 129 226 b 382 -21 129 47 215 -21 b 519 -7 426 -21 478 -17 l 519 178 b 425 167 492 174 457 167 b 343 242 371 167 343 182 l 343 444 l 519 444 l 519 611 l 343 611 l 343 847 l 129 847 l 129 611 l 0 611 z m 225 -90 b 186 -292 225 -151 211 -229 l 371 -292 b 449 -90 422 -218 443 -157 z "},"ț":{"ha":561,"x_min":0,"x_max":0,"o":"m 0 444 l 129 444 l 129 226 b 382 -21 129 47 215 -21 b 519 -7 426 -21 478 -17 l 519 178 b 425 167 492 174 457 167 b 343 242 371 167 343 182 l 343 444 l 519 444 l 519 611 l 343 611 l 343 847 l 129 847 l 129 611 l 0 611 z m 225 -90 b 186 -292 225 -151 211 -229 l 371 -292 b 449 -90 422 -218 443 -157 z "},"ú":{"ha":719,"x_min":0,"x_max":0,"o":"m 267 611 l 53 611 l 53 222 b 271 -21 53 67 140 -21 b 443 79 338 -21 403 13 l 443 0 l 657 0 l 657 611 l 443 611 l 443 301 b 354 160 443 203 404 160 b 267 283 301 160 267 200 z m 417 708 l 571 914 l 344 914 l 257 708 z "},"û":{"ha":719,"x_min":0,"x_max":0,"o":"m 267 611 l 53 611 l 53 222 b 271 -21 53 67 140 -21 b 443 79 338 -21 403 13 l 443 0 l 657 0 l 657 611 l 443 611 l 443 301 b 354 160 443 203 404 160 b 267 283 301 160 267 200 z m 296 708 l 353 794 l 408 708 l 589 708 l 446 914 l 258 914 l 115 708 z "},"ü":{"ha":719,"x_min":0,"x_max":0,"o":"m 267 611 l 53 611 l 53 222 b 271 -21 53 67 140 -21 b 443 79 338 -21 403 13 l 443 0 l 657 0 l 657 611 l 443 611 l 443 301 b 354 160 443 203 404 160 b 267 283 301 160 267 200 z m 217 701 b 324 817 276 701 324 753 b 217 929 324 879 276 929 b 108 817 157 929 108 879 b 217 701 108 753 157 701 z m 488 701 b 594 817 547 701 594 753 b 488 929 594 879 547 929 b 381 817 429 929 381 879 b 488 701 381 753 429 701 z "},"ù":{"ha":719,"x_min":0,"x_max":0,"o":"m 267 611 l 53 611 l 53 222 b 271 -21 53 67 140 -21 b 443 79 338 -21 403 13 l 443 0 l 657 0 l 657 611 l 443 611 l 443 301 b 354 160 443 203 404 160 b 267 283 301 160 267 200 z m 286 708 l 446 708 l 358 914 l 132 914 z "},"ŭ":{"ha":719,"x_min":0,"x_max":0,"o":"m 267 611 l 53 611 l 53 222 b 271 -21 53 67 140 -21 b 443 79 338 -21 403 13 l 443 0 l 657 0 l 657 611 l 443 611 l 443 301 b 354 160 443 203 404 160 b 267 283 301 160 267 200 z m 279 913 l 121 913 b 351 699 128 785 214 699 b 583 913 489 699 576 785 l 424 913 b 351 819 424 849 397 819 b 279 913 306 819 279 849 z "},"ű":{"ha":719,"x_min":0,"x_max":0,"o":"m 267 611 l 53 611 l 53 222 b 271 -21 53 67 140 -21 b 443 79 338 -21 403 13 l 443 0 l 657 0 l 657 611 l 443 611 l 443 301 b 354 160 443 203 404 160 b 267 283 301 160 267 200 z m 535 708 l 647 914 l 469 914 l 382 708 z m 299 708 l 411 914 l 233 914 l 146 708 z "},"ū":{"ha":719,"x_min":0,"x_max":0,"o":"m 267 611 l 53 611 l 53 222 b 271 -21 53 67 140 -21 b 443 79 338 -21 403 13 l 443 0 l 657 0 l 657 611 l 443 611 l 443 301 b 354 160 443 203 404 160 b 267 283 301 160 267 200 z m 583 743 l 583 858 l 129 858 l 129 743 z "},"ų":{"ha":719,"x_min":0,"x_max":0,"o":"m 267 611 l 53 611 l 53 222 b 271 -21 53 67 140 -21 b 443 79 338 -21 403 13 l 443 0 l 508 0 b 401 -171 444 -40 401 -100 b 568 -322 401 -264 471 -322 b 656 -301 606 -322 635 -312 l 656 -156 b 604 -168 643 -162 626 -168 b 543 -112 564 -168 543 -150 b 657 0 543 -58 592 -26 l 657 611 l 443 611 l 443 301 b 354 160 443 203 404 160 b 267 283 301 160 267 200 z "},"ů":{"ha":719,"x_min":0,"x_max":0,"o":"m 267 611 l 53 611 l 53 222 b 271 -21 53 67 140 -21 b 443 79 338 -21 403 13 l 443 0 l 657 0 l 657 611 l 443 611 l 443 301 b 354 160 443 203 404 160 b 267 283 301 160 267 200 z m 351 675 b 514 833 440 675 514 744 b 351 992 514 921 440 992 b 190 833 261 992 190 921 b 351 675 190 744 261 675 z m 351 761 b 279 833 310 761 279 792 b 351 906 279 875 310 906 b 424 833 393 906 424 875 b 351 761 424 792 393 761 z "},"ũ":{"ha":719,"x_min":0,"x_max":0,"o":"m 267 611 l 53 611 l 53 222 b 271 -21 53 67 140 -21 b 443 79 338 -21 403 13 l 443 0 l 657 0 l 657 611 l 443 611 l 443 301 b 354 160 443 203 404 160 b 267 283 301 160 267 200 z m 472 701 b 642 913 575 701 632 772 l 492 913 b 454 846 492 860 479 846 b 244 919 403 846 340 919 b 75 708 142 919 85 849 l 225 708 b 263 775 225 761 239 775 b 472 701 317 775 376 701 z "},"ẃ":{"ha":1043,"x_min":0,"x_max":0,"o":"m 414 611 l 322 229 l 229 611 l 10 611 l 190 0 l 438 0 l 525 354 l 613 0 l 853 0 l 1033 611 l 821 611 l 724 214 l 629 611 z m 590 708 l 744 914 l 518 914 l 431 708 z "},"ŵ":{"ha":1043,"x_min":0,"x_max":0,"o":"m 414 611 l 322 229 l 229 611 l 10 611 l 190 0 l 438 0 l 525 354 l 613 0 l 853 0 l 1033 611 l 821 611 l 724 214 l 629 611 z m 450 708 l 507 794 l 563 708 l 743 708 l 600 914 l 413 914 l 269 708 z "},"ẅ":{"ha":1043,"x_min":0,"x_max":0,"o":"m 414 611 l 322 229 l 229 611 l 10 611 l 190 0 l 438 0 l 525 354 l 613 0 l 853 0 l 1033 611 l 821 611 l 724 214 l 629 611 z m 371 701 b 478 817 431 701 478 753 b 371 929 478 879 431 929 b 263 817 311 929 263 879 b 371 701 263 753 311 701 z m 642 701 b 749 817 701 701 749 753 b 642 929 749 879 701 929 b 535 817 583 929 535 879 b 642 701 535 753 583 701 z "},"ẁ":{"ha":1043,"x_min":0,"x_max":0,"o":"m 414 611 l 322 229 l 229 611 l 10 611 l 190 0 l 438 0 l 525 354 l 613 0 l 853 0 l 1033 611 l 821 611 l 724 214 l 629 611 z m 421 708 l 581 708 l 493 914 l 267 914 z "},"ý":{"ha":665,"x_min":0,"x_max":0,"o":"m 444 611 l 336 276 l 225 611 l 8 611 l 228 44 l 124 -243 l 328 -243 l 658 611 z m 390 708 l 544 914 l 318 914 l 231 708 z "},"ÿ":{"ha":665,"x_min":0,"x_max":0,"o":"m 444 611 l 336 276 l 225 611 l 8 611 l 228 44 l 124 -243 l 328 -243 l 658 611 z m 190 701 b 297 817 250 701 297 753 b 190 929 297 879 250 929 b 82 817 131 929 82 879 b 190 701 82 753 131 701 z m 461 701 b 568 817 521 701 568 753 b 461 929 568 879 521 929 b 354 817 403 929 354 879 b 461 701 354 753 403 701 z "},"ŷ":{"ha":665,"x_min":0,"x_max":0,"o":"m 444 611 l 336 276 l 225 611 l 8 611 l 228 44 l 124 -243 l 328 -243 l 658 611 z m 269 708 l 326 794 l 382 708 l 563 708 l 419 914 l 232 914 l 89 708 z "},"ỳ":{"ha":665,"x_min":0,"x_max":0,"o":"m 444 611 l 336 276 l 225 611 l 8 611 l 228 44 l 124 -243 l 328 -243 l 658 611 z m 260 708 l 419 708 l 332 914 l 106 914 z "},"ž":{"ha":635,"x_min":0,"x_max":0,"o":"m 33 0 l 601 0 l 601 174 l 321 174 l 583 468 l 583 611 l 46 611 l 46 438 l 313 438 l 33 133 z m 254 914 l 74 914 l 217 708 l 404 708 l 547 914 l 367 914 l 311 828 z "},"ź":{"ha":635,"x_min":0,"x_max":0,"o":"m 33 0 l 601 0 l 601 174 l 321 174 l 583 468 l 583 611 l 46 611 l 46 438 l 313 438 l 33 133 z m 376 708 l 531 914 l 304 914 l 217 708 z "},"ż":{"ha":635,"x_min":0,"x_max":0,"o":"m 33 0 l 601 0 l 601 174 l 321 174 l 583 468 l 583 611 l 46 611 l 46 438 l 313 438 l 33 133 z m 308 685 b 439 815 381 685 439 743 b 308 944 439 888 381 944 b 178 815 236 944 178 888 b 308 685 178 743 236 685 z "},"´":{"ha":774,"x_min":0,"x_max":0,"o":"m 415 688 l 569 893 l 343 893 l 256 688 z "},"`":{"ha":694,"x_min":0,"x_max":0,"o":"m 285 688 l 444 688 l 357 893 l 131 893 z "},"ˆ":{"ha":694,"x_min":0,"x_max":0,"o":"m 276 688 l 333 774 l 389 688 l 569 688 l 426 893 l 239 893 l 96 688 z "},"ˇ":{"ha":694,"x_min":0,"x_max":0,"o":"m 276 893 l 96 893 l 239 688 l 426 688 l 569 893 l 389 893 l 333 807 z "},"˜":{"ha":694,"x_min":0,"x_max":0,"o":"m 461 660 b 631 871 564 660 621 731 l 481 871 b 443 804 481 818 468 804 b 233 878 392 804 329 878 b 64 667 131 878 74 807 l 214 667 b 251 733 214 719 228 733 b 461 660 306 733 365 660 z "},"¨":{"ha":694,"x_min":0,"x_max":0,"o":"m 213 681 b 319 796 272 681 319 732 b 213 908 319 858 272 908 b 104 796 153 908 104 858 b 213 681 104 732 153 681 z m 483 681 b 590 796 543 681 590 732 b 483 908 590 858 543 908 b 376 796 425 908 376 858 b 483 681 376 732 425 681 z "},"˚":{"ha":694,"x_min":0,"x_max":0,"o":"m 347 633 b 510 792 436 633 510 703 b 347 950 510 879 436 950 b 186 792 257 950 186 879 b 347 633 186 703 257 633 z m 347 719 b 275 792 306 719 275 750 b 347 864 275 833 306 864 b 419 792 389 864 419 833 b 347 719 419 750 389 719 z "},"¸":{"ha":760,"x_min":0,"x_max":0,"o":"m 233 -132 l 290 -169 b 350 -147 317 -153 331 -147 b 399 -189 382 -147 399 -162 b 349 -233 399 -218 379 -233 b 264 -176 317 -233 293 -218 l 175 -233 b 351 -336 219 -306 285 -336 b 510 -192 436 -336 510 -283 b 406 -69 510 -119 467 -69 b 353 -85 385 -69 368 -75 l 404 10 l 311 10 z "},"˝":{"ha":774,"x_min":0,"x_max":0,"o":"m 533 688 l 646 893 l 468 893 l 381 688 z m 297 688 l 410 893 l 232 893 l 144 688 z "},"˘":{"ha":694,"x_min":0,"x_max":0,"o":"m 275 871 l 117 871 b 347 657 124 743 210 657 b 579 871 485 657 572 743 l 419 871 b 347 778 419 807 393 778 b 275 871 301 778 275 807 z "},"¯":{"ha":774,"x_min":0,"x_max":0,"o":"m 614 722 l 614 838 l 160 838 l 160 722 z "},"˙":{"ha":694,"x_min":0,"x_max":0,"o":"m 347 664 b 478 794 419 664 478 722 b 347 924 478 867 419 924 b 217 794 275 924 217 867 b 347 664 217 722 275 664 z "},"·":{"ha":694,"x_min":0,"x_max":0,"o":"m 347 372 b 478 503 419 372 478 431 b 347 632 478 575 419 632 b 217 503 275 632 217 575 b 347 372 217 431 275 372 z "},"˛":{"ha":760,"x_min":0,"x_max":0,"o":"m 453 51 b 217 -171 325 25 217 -58 b 383 -322 217 -264 286 -322 b 471 -301 421 -322 450 -312 l 471 -156 b 419 -168 458 -162 442 -168 b 358 -112 379 -168 358 -150 b 472 0 358 -58 407 -26 z "},"":{"ha":694,"x_min":0,"x_max":0,"o":"m 260 -62 b 221 -264 260 -124 246 -201 l 406 -264 b 483 -62 457 -190 478 -129 z "},".":{"ha":372,"x_min":0,"x_max":0,"o":"m 186 -21 b 317 110 258 -21 317 38 b 186 240 317 183 258 240 b 56 110 114 240 56 183 b 186 -21 56 38 114 -21 z "},",":{"ha":339,"x_min":0,"x_max":0,"o":"m 78 219 b -10 -183 65 101 35 -37 l 175 -183 b 301 219 243 -19 272 78 z "},":":{"ha":372,"x_min":0,"x_max":0,"o":"m 186 -21 b 317 110 258 -21 317 38 b 186 240 317 183 258 240 b 56 110 114 240 56 183 b 186 -21 56 38 114 -21 z m 186 372 b 317 503 258 372 317 431 b 186 633 317 576 258 633 b 56 503 114 633 56 576 b 186 372 56 431 114 372 z "},";":{"ha":354,"x_min":0,"x_max":0,"o":"m 78 219 b -10 -183 65 101 35 -37 l 175 -183 b 301 219 243 -19 272 78 z m 186 371 b 317 501 258 371 317 429 b 186 632 317 575 258 632 b 56 501 114 632 56 575 b 186 371 56 429 114 371 z "},"…":{"ha":1344,"x_min":0,"x_max":0,"o":"m 186 -21 b 317 110 258 -21 317 38 b 186 240 317 183 258 240 b 56 110 114 240 56 183 b 186 -21 56 38 114 -21 z m 672 -21 b 803 110 744 -21 803 38 b 672 240 803 183 744 240 b 542 110 600 240 542 183 b 672 -21 542 38 600 -21 z m 1158 -21 b 1289 110 1231 -21 1289 38 b 1158 240 1289 183 1231 240 b 1028 110 1086 240 1028 183 b 1158 -21 1028 38 1086 -21 z "},"?":{"ha":683,"x_min":0,"x_max":0,"o":"m 224 260 l 404 260 l 404 388 l 492 438 b 635 649 603 500 635 582 b 350 896 635 801 529 896 b 42 636 165 896 42 789 l 42 611 l 247 611 b 336 708 242 671 276 708 b 426 629 390 708 426 679 b 369 547 426 603 417 576 l 224 458 z m 314 -21 b 432 97 379 -21 432 32 b 314 215 432 164 379 215 b 196 97 249 215 196 164 b 314 -21 196 32 249 -21 z "},"!":{"ha":361,"x_min":0,"x_max":0,"o":"m 119 260 l 244 260 l 286 708 l 286 875 l 78 875 l 78 708 z m 181 -21 b 299 97 246 -21 299 32 b 181 215 299 164 246 215 b 63 97 115 215 63 164 b 181 -21 63 32 115 -21 z "},"¿":{"ha":683,"x_min":0,"x_max":0,"o":"m 369 653 b 251 535 304 653 251 600 b 369 417 251 468 304 417 b 488 535 435 417 488 468 b 369 653 488 600 435 653 z m 460 372 l 279 372 l 279 244 l 192 194 b 49 -17 81 132 49 50 b 333 -264 49 -169 154 -264 b 642 -4 518 -264 642 -157 l 642 21 l 436 21 b 347 -76 442 -39 407 -76 b 257 3 293 -76 257 -47 b 314 85 257 29 267 56 l 460 174 z "},"¡":{"ha":361,"x_min":0,"x_max":0,"o":"m 181 653 b 63 535 115 653 63 600 b 181 417 63 468 115 417 b 299 535 246 417 299 468 b 181 653 299 600 246 653 z m 119 372 l 78 -76 l 78 -243 l 286 -243 l 286 -76 l 244 372 z "},"(":{"ha":388,"x_min":0,"x_max":0,"o":"m 236 390 b 439 913 236 549 286 728 l 289 1004 b 44 390 126 817 44 608 b 289 -224 44 172 126 -36 l 439 -132 b 236 390 286 53 236 232 z "},")":{"ha":388,"x_min":0,"x_max":0,"o":"m 151 390 b -51 -132 151 232 101 53 l 99 -224 b 343 390 261 -36 343 172 b 99 1004 343 608 261 817 l -51 913 b 151 390 101 728 151 549 z "},"{":{"ha":400,"x_min":0,"x_max":0,"o":"m 88 317 b 164 267 138 317 164 304 b 65 -28 164 190 65 85 b 278 -203 65 -136 139 -203 l 358 -203 l 358 -49 l 329 -49 b 258 0 281 -49 258 -33 b 350 278 258 76 350 175 b 278 390 350 325 324 364 b 350 503 324 417 350 456 b 258 781 350 606 258 703 b 329 829 258 814 281 829 l 358 829 l 358 983 l 278 983 b 65 808 139 983 65 915 b 164 514 65 694 164 590 b 88 464 164 476 138 464 l 47 464 l 47 317 z "},"}":{"ha":400,"x_min":0,"x_max":0,"o":"m 313 464 b 236 514 263 464 236 476 b 335 808 236 590 335 694 b 122 983 335 915 261 983 l 42 983 l 42 829 l 71 829 b 142 781 119 829 142 814 b 50 503 142 703 50 606 b 122 390 50 456 76 417 b 50 278 76 364 50 325 b 142 0 50 175 142 76 b 71 -49 142 -33 119 -49 l 42 -49 l 42 -203 l 122 -203 b 335 -28 261 -203 335 -136 b 236 267 335 85 236 190 b 313 317 236 304 263 317 l 353 317 l 353 464 z "},"[":{"ha":400,"x_min":0,"x_max":0,"o":"m 28 983 l 28 -203 l 386 -203 l 386 -22 l 236 -22 l 236 803 l 386 803 l 386 983 z "},"]":{"ha":400,"x_min":0,"x_max":0,"o":"m 372 -203 l 372 983 l 14 983 l 14 803 l 164 803 l 164 -22 l 14 -22 l 14 -203 z "},"/":{"ha":422,"x_min":0,"x_max":0,"o":"m -21 -208 l 151 -208 l 443 944 l 271 944 z "},"\\":{"ha":422,"x_min":0,"x_max":0,"o":"m 443 -208 l 151 944 l -21 944 l 271 -208 z "},"_":{"ha":764,"x_min":0,"x_max":0,"o":"m 69 -181 l 694 -181 l 694 0 l 69 0 z "},"-":{"ha":556,"x_min":0,"x_max":0,"o":"m 69 236 l 486 236 l 486 417 l 69 417 z "},"­":{"ha":0,"x_min":0,"x_max":0,"o":""},"–":{"ha":764,"x_min":0,"x_max":0,"o":"m 69 236 l 694 236 l 694 417 l 69 417 z "},"—":{"ha":1250,"x_min":0,"x_max":0,"o":"m 69 236 l 1181 236 l 1181 417 l 69 417 z "},"¦":{"ha":410,"x_min":0,"x_max":0,"o":"m 97 875 l 97 443 l 313 443 l 313 875 z m 97 189 l 97 -243 l 313 -243 l 313 189 z "},"|":{"ha":410,"x_min":0,"x_max":0,"o":"m 97 875 l 97 -243 l 313 -243 l 313 875 z "},"«":{"ha":872,"x_min":0,"x_max":0,"o":"m 440 11 l 440 200 l 211 335 l 440 469 l 440 658 l 49 415 l 49 254 z m 810 11 l 810 200 l 581 335 l 810 469 l 810 658 l 418 415 l 418 254 z "},"»":{"ha":872,"x_min":0,"x_max":0,"o":"m 63 11 l 454 254 l 454 415 l 63 658 l 63 469 l 292 335 l 63 200 z m 432 11 l 824 254 l 824 415 l 432 658 l 432 469 l 661 335 l 432 200 z "},"‹":{"ha":503,"x_min":0,"x_max":0,"o":"m 440 11 l 440 200 l 211 335 l 440 469 l 440 658 l 49 415 l 49 254 z "},"›":{"ha":503,"x_min":0,"x_max":0,"o":"m 63 11 l 454 254 l 454 415 l 63 658 l 63 469 l 292 335 l 63 200 z "},"‚":{"ha":328,"x_min":0,"x_max":0,"o":"m 51 176 b 78 50 63 142 78 101 b 7 -153 78 0 61 -65 l 194 -153 b 279 75 253 -71 279 -7 b 264 176 279 100 275 143 z "},"„":{"ha":599,"x_min":0,"x_max":0,"o":"m 51 176 b 78 50 63 142 78 101 b 7 -153 78 0 61 -65 l 194 -153 b 279 75 253 -71 279 -7 b 264 176 279 100 275 143 z m 322 176 b 349 50 333 142 349 101 b 278 -153 349 0 332 -65 l 465 -153 b 550 75 524 -71 550 -7 b 535 176 550 100 546 143 z "},"‘":{"ha":314,"x_min":0,"x_max":0,"o":"m 263 546 b 236 672 251 581 236 621 b 307 875 236 722 253 788 l 119 875 b 35 647 61 793 35 729 b 50 546 35 622 39 579 z "},"“":{"ha":585,"x_min":0,"x_max":0,"o":"m 533 546 b 507 672 522 581 507 621 b 578 875 507 722 524 788 l 390 875 b 306 647 332 793 306 729 b 321 546 306 622 310 579 z m 263 546 b 236 672 251 581 236 621 b 307 875 236 722 253 788 l 119 875 b 35 647 61 793 35 729 b 50 546 35 622 39 579 z "},"’":{"ha":314,"x_min":0,"x_max":0,"o":"m 51 875 b 78 749 63 840 78 800 b 7 546 78 699 61 633 l 194 546 b 279 774 253 628 279 692 b 264 875 279 799 275 842 z "},"”":{"ha":585,"x_min":0,"x_max":0,"o":"m 51 875 b 78 749 63 840 78 800 b 7 546 78 699 61 633 l 194 546 b 279 774 253 628 279 692 b 264 875 279 799 275 842 z m 322 875 b 349 749 333 840 349 800 b 278 546 349 699 332 633 l 465 546 b 550 774 524 628 550 692 b 535 875 550 799 546 842 z "},"'":{"ha":300,"x_min":0,"x_max":0,"o":"m 244 458 l 244 875 l 56 875 l 56 458 z "},"\"":{"ha":578,"x_min":0,"x_max":0,"o":"m 244 458 l 244 875 l 56 875 l 56 458 z m 522 458 l 522 875 l 333 875 l 333 458 z "},"•":{"ha":575,"x_min":0,"x_max":0,"o":"m 288 214 b 499 425 403 214 499 308 b 288 636 499 540 403 636 b 76 425 171 636 76 540 b 288 214 76 308 171 214 z "},"&":{"ha":888,"x_min":0,"x_max":0,"o":"m 657 0 l 897 0 l 700 215 l 703 218 l 815 363 l 689 468 l 583 342 l 478 457 b 614 690 551 515 614 586 b 375 896 614 821 511 896 b 133 679 225 896 133 803 b 217 489 133 624 149 575 b 51 231 131 428 51 351 b 335 -21 51 82 178 -21 b 582 83 431 -21 508 17 z m 315 676 b 368 731 315 706 335 731 b 424 675 399 731 424 708 b 363 586 424 642 399 614 b 315 676 325 631 315 656 z m 260 243 b 335 354 260 285 292 319 l 467 210 b 357 160 421 169 388 160 b 260 243 294 160 260 199 z "},"¶":{"ha":835,"x_min":0,"x_max":0,"o":"m 339 317 l 363 317 l 363 -139 l 515 -139 l 515 875 l 344 875 b 35 596 136 875 35 764 b 339 317 35 450 125 317 z m 772 -139 l 772 875 l 585 875 l 585 -139 z "},"†":{"ha":500,"x_min":0,"x_max":0,"o":"m 42 586 l 168 586 l 168 333 l 332 333 l 332 586 l 458 586 l 458 736 l 332 736 l 332 875 l 168 875 l 168 736 l 42 736 z "},"‡":{"ha":500,"x_min":0,"x_max":0,"o":"m 42 431 l 172 431 l 172 333 l 328 333 l 328 431 l 458 431 l 458 560 l 328 560 l 328 649 l 458 649 l 458 778 l 328 778 l 328 875 l 172 875 l 172 778 l 42 778 l 42 649 l 172 649 l 172 560 l 42 560 z "},"§":{"ha":694,"x_min":0,"x_max":0,"o":"m 617 79 b 517 242 617 151 579 204 b 617 400 578 272 617 324 b 451 589 617 493 558 556 l 336 625 b 256 697 267 647 256 674 b 332 750 256 735 294 750 b 421 660 390 750 418 718 l 610 660 b 333 896 603 811 500 896 b 71 683 169 896 71 804 b 171 521 71 611 108 558 b 71 363 110 490 71 439 b 236 174 71 269 131 207 l 351 138 b 432 65 421 115 432 89 b 356 13 432 28 393 13 b 267 103 297 13 269 44 l 78 103 b 354 -133 85 -49 188 -133 b 617 79 518 -133 617 -42 z m 356 300 b 246 390 279 322 246 344 b 321 465 246 426 272 457 l 332 463 b 442 372 408 440 442 418 b 367 297 442 336 415 306 z "},"*":{"ha":694,"x_min":0,"x_max":0,"o":"m 568 431 l 515 501 l 451 571 l 544 588 l 628 615 l 581 761 l 497 733 l 411 693 l 424 786 l 424 875 l 271 875 l 271 786 l 283 693 l 197 733 l 114 761 l 67 615 l 150 588 l 243 571 l 179 501 l 126 431 l 250 340 l 301 413 l 347 496 l 393 413 l 444 340 z "},"™":{"ha":1286,"x_min":0,"x_max":0,"o":"m 206 357 l 326 357 l 326 772 l 504 772 l 504 875 l 28 875 l 28 772 l 206 772 z m 560 357 l 676 357 l 676 757 l 828 357 l 963 357 l 1114 757 l 1114 357 l 1231 357 l 1231 875 l 1043 875 l 897 485 l 750 875 l 560 875 z "},"®":{"ha":694,"x_min":0,"x_max":0,"o":"m 347 286 b 660 597 517 286 660 428 b 347 910 660 768 517 910 b 35 597 176 910 35 768 b 347 286 35 428 176 286 z m 347 360 b 111 597 214 360 111 453 b 347 833 111 743 214 833 b 586 597 482 833 586 743 b 347 360 586 453 482 360 z m 221 418 l 299 418 l 299 553 l 336 553 l 406 418 l 494 418 l 415 560 b 492 664 471 576 492 621 b 356 776 492 729 451 776 l 221 776 z m 344 711 b 411 664 389 711 411 699 b 349 618 411 629 396 618 l 299 618 l 299 711 z "},"©":{"ha":1007,"x_min":0,"x_max":0,"o":"m 504 -24 b 965 436 756 -24 965 185 b 504 897 965 690 756 897 b 42 436 250 897 42 690 b 504 -24 42 185 250 -24 z m 504 64 b 135 436 301 64 135 217 b 504 804 135 657 301 804 b 878 436 707 804 878 657 b 504 64 878 217 707 64 z m 396 433 b 507 585 396 535 446 585 b 603 490 554 585 596 554 l 810 490 b 507 742 782 681 629 742 b 194 433 351 742 194 647 b 507 125 194 221 351 125 b 810 378 631 125 783 188 l 603 378 b 507 282 594 314 554 282 b 396 433 446 282 396 332 z "},"Ⓟ":{"ha":1007,"x_min":0,"x_max":0,"o":"m 504 -24 b 965 436 756 -24 965 185 b 504 897 965 690 756 897 b 42 436 250 897 42 690 b 504 -24 42 185 250 -24 z m 504 64 b 135 436 301 64 135 217 b 504 804 135 657 301 804 b 878 436 707 804 878 657 b 504 64 878 217 707 64 z m 307 153 l 493 153 l 493 343 l 564 343 b 785 533 703 343 785 417 b 563 724 785 649 713 724 l 307 724 z m 544 582 b 592 533 571 582 592 564 b 542 483 592 504 574 483 l 493 483 l 493 582 z "},"@":{"ha":1179,"x_min":0,"x_max":0,"o":"m 282 263 b 489 15 282 94 388 15 b 689 153 569 15 644 67 b 874 17 714 76 778 17 b 1131 349 1024 17 1131 150 b 618 818 1131 614 940 818 b 49 264 288 818 49 586 b 508 -217 49 -18 240 -217 b 833 -106 628 -217 750 -175 l 763 0 b 515 -86 693 -56 615 -86 b 196 268 314 -86 196 49 b 618 688 196 531 374 688 b 983 332 863 688 983 539 b 883 147 983 228 951 147 b 833 264 838 147 818 183 l 888 564 l 733 564 l 715 464 b 549 583 686 549 622 583 b 282 263 404 583 282 446 z m 590 456 b 693 338 651 456 693 410 b 535 142 693 229 619 142 b 440 264 474 142 440 188 b 590 456 440 368 506 456 z "},"ª":{"ha":635,"x_min":0,"x_max":0,"o":"m 565 654 b 325 889 565 803 476 889 b 61 681 192 889 78 822 l 236 681 b 310 747 236 731 268 747 b 383 667 361 747 383 725 l 383 656 l 200 636 b 44 496 96 624 44 582 b 229 333 44 392 128 333 b 383 408 308 333 360 368 l 383 351 l 565 351 z m 228 496 b 289 546 228 526 249 542 l 383 556 b 290 447 383 490 347 447 b 228 496 253 447 228 464 z "},"º":{"ha":658,"x_min":0,"x_max":0,"o":"m 329 333 b 614 611 486 333 614 447 b 329 889 614 775 485 889 b 44 611 174 889 44 775 b 329 333 44 447 172 333 z m 329 488 b 226 611 263 488 226 538 b 329 735 226 683 264 735 b 432 611 394 735 432 683 b 329 488 432 538 394 488 z "},"#":{"ha":875,"x_min":0,"x_max":0,"o":"m 49 201 l 182 201 l 182 0 l 374 0 l 374 201 l 501 201 l 501 0 l 693 0 l 693 201 l 826 201 l 826 365 l 693 365 l 693 468 l 826 468 l 826 632 l 693 632 l 693 833 l 501 833 l 501 632 l 374 632 l 374 833 l 182 833 l 182 632 l 49 632 l 49 468 l 182 468 l 182 365 l 49 365 z m 374 365 l 374 468 l 501 468 l 501 365 z "},"€":{"ha":774,"x_min":0,"x_max":0,"o":"m -1 293 l 144 293 b 560 -21 197 106 354 -21 b 718 1 614 -21 665 -11 l 718 231 b 564 174 667 188 611 174 b 372 293 478 174 410 219 l 544 293 l 565 403 l 342 403 b 340 438 340 414 340 425 b 342 472 340 450 340 461 l 574 472 l 594 582 l 372 582 b 560 701 408 656 475 701 b 718 642 615 701 671 685 l 718 872 b 560 896 665 886 614 896 b 143 582 347 896 194 769 l 49 582 l 28 472 l 126 472 b 125 438 125 461 125 449 b 126 403 125 426 125 414 l 19 403 z "},"$":{"ha":744,"x_min":0,"x_max":0,"o":"m 285 -112 l 468 -112 l 468 -12 b 703 251 610 15 703 113 b 271 647 703 564 271 500 b 369 717 271 688 307 717 b 475 599 424 717 474 690 l 686 599 b 454 886 686 758 596 858 l 454 986 l 271 986 l 271 883 b 60 638 142 854 60 763 b 490 235 60 333 490 386 b 379 157 490 186 449 157 b 253 286 300 157 258 200 l 35 286 b 285 -11 35 122 138 19 z "},"¥":{"ha":871,"x_min":0,"x_max":0,"o":"m 97 147 l 328 147 l 328 0 l 543 0 l 543 147 l 774 147 l 774 257 l 543 257 l 543 319 l 774 319 l 774 429 l 593 429 l 857 875 l 625 875 l 438 551 l 254 875 l 14 875 l 278 429 l 97 429 l 97 319 l 328 319 l 328 257 l 97 257 z "},"£":{"ha":733,"x_min":0,"x_max":0,"o":"m 83 346 l 225 346 b 47 151 211 274 156 192 l 47 0 l 711 0 l 711 167 l 332 167 b 443 346 396 215 435 278 l 597 346 l 597 456 l 431 456 b 336 657 401 533 336 588 b 407 726 336 700 363 726 b 485 647 453 726 481 699 l 694 647 b 406 896 686 803 578 896 b 118 668 233 896 118 803 b 207 456 118 571 176 517 l 83 456 z "},"¢":{"ha":707,"x_min":0,"x_max":0,"o":"m 271 0 l 454 0 l 454 94 b 682 350 560 121 661 194 l 463 350 b 361 250 456 283 411 250 b 244 410 297 250 244 303 b 361 569 244 517 297 569 b 463 469 411 569 457 538 l 682 469 b 454 725 660 625 558 699 l 454 819 l 271 819 l 271 725 b 31 410 142 694 31 593 b 271 94 31 226 142 125 z "},"ƒ":{"ha":661,"x_min":0,"x_max":0,"o":"m 175 156 b 57 32 165 60 138 32 b -35 46 25 32 -7 38 l -35 -135 b 81 -153 -8 -146 28 -153 b 386 136 257 -153 364 -69 l 413 379 l 596 379 l 596 546 l 431 546 l 435 588 b 551 711 444 682 474 711 b 644 701 585 711 617 706 l 644 882 b 542 896 621 890 585 896 b 222 607 349 896 242 799 l 215 546 l 65 546 l 65 379 l 199 379 z "},"¤":{"ha":707,"x_min":0,"x_max":0,"o":"m 142 174 l 201 233 b 354 179 246 200 299 179 b 506 232 410 179 463 200 l 564 174 l 617 228 l 558 286 b 613 439 592 329 613 383 b 558 590 613 494 592 547 l 617 649 l 564 703 l 506 644 b 354 697 463 678 410 697 b 201 643 299 697 244 676 l 142 703 l 89 649 l 149 589 b 96 439 115 546 96 493 b 149 288 96 383 115 331 l 89 228 z m 354 297 b 213 439 271 297 213 356 b 354 579 213 522 271 579 b 494 439 438 579 494 522 b 354 297 494 356 438 297 z "},"°":{"ha":476,"x_min":0,"x_max":0,"o":"m 238 514 b 425 696 340 514 425 593 b 238 879 425 797 340 879 b 51 696 133 879 51 797 b 238 514 51 593 133 514 z m 238 613 b 154 696 189 613 154 649 b 238 779 154 744 189 779 b 321 696 285 779 321 744 b 238 613 321 649 285 613 z "},"%":{"ha":1079,"x_min":0,"x_max":0,"o":"m 275 457 b 489 676 390 457 489 544 b 275 897 489 808 390 897 b 63 676 157 897 63 808 b 275 457 63 544 157 457 z m 231 0 l 375 0 l 847 875 l 703 875 z m 275 575 b 197 676 231 575 197 608 b 275 778 197 744 231 778 b 353 676 319 778 353 744 b 275 575 353 608 319 575 z m 803 -19 b 1017 200 918 -19 1017 68 b 803 421 1017 332 918 421 b 590 200 685 421 590 332 b 803 -19 590 68 685 -19 z m 803 99 b 725 200 758 99 725 132 b 803 301 725 268 758 301 b 881 200 847 301 881 268 b 803 99 881 132 847 99 z "},"‰":{"ha":1524,"x_min":0,"x_max":0,"o":"m 275 457 b 489 676 390 457 489 544 b 275 897 489 808 390 897 b 63 676 157 897 63 808 b 275 457 63 544 157 457 z m 196 0 l 340 0 l 882 875 l 738 875 z m 275 575 b 197 676 231 575 197 608 b 275 778 197 744 231 778 b 353 676 319 778 353 744 b 275 575 353 608 319 575 z m 803 -19 b 1017 200 918 -19 1017 68 b 803 421 1017 332 918 421 b 590 200 685 421 590 332 b 803 -19 590 68 685 -19 z m 1289 -19 b 1503 200 1404 -19 1503 68 b 1289 421 1503 332 1404 421 b 1076 200 1171 421 1076 332 b 1289 -19 1076 68 1171 -19 z m 803 99 b 725 200 758 99 725 132 b 803 301 725 268 758 301 b 881 200 847 301 881 268 b 803 99 881 132 847 99 z m 1289 99 b 1211 200 1244 99 1211 132 b 1289 301 1211 268 1244 301 b 1367 200 1333 301 1367 268 b 1289 99 1367 132 1333 99 z "},"⁄":{"ha":367,"x_min":0,"x_max":0,"o":"m 0 0 l 158 0 l 367 944 l 208 944 z "},"∕":{"ha":367,"x_min":0,"x_max":0,"o":"m 0 0 l 158 0 l 367 944 l 208 944 z "},"⁰":{"ha":574,"x_min":0,"x_max":0,"o":"m 286 444 b 532 736 438 444 532 551 b 286 1028 532 921 436 1028 b 42 736 136 1028 42 921 b 286 444 42 551 135 444 z m 286 590 b 207 736 246 590 207 613 b 286 882 207 860 246 882 b 367 736 328 882 367 860 b 286 590 367 613 328 590 z "},"¹":{"ha":468,"x_min":0,"x_max":0,"o":"m 49 458 l 440 458 l 440 592 l 332 592 l 332 1014 l 172 1014 l 168 993 b 92 938 160 954 136 938 l 54 938 l 54 813 l 158 813 l 158 592 l 49 592 z "},"²":{"ha":521,"x_min":0,"x_max":0,"o":"m 469 850 b 263 1028 469 967 381 1028 b 49 825 132 1028 49 961 l 206 825 b 260 893 206 871 224 893 b 300 854 286 893 300 878 b 38 501 300 747 38 708 l 38 458 l 475 458 l 475 596 l 238 596 b 469 850 306 664 469 713 z "},"³":{"ha":528,"x_min":0,"x_max":0,"o":"m 240 686 b 326 625 303 686 326 669 b 263 567 326 589 301 567 b 193 635 222 567 194 583 l 39 635 b 271 444 44 519 124 444 b 496 615 404 444 496 517 b 374 751 496 682 458 728 b 478 886 446 775 478 825 b 279 1028 478 974 401 1028 b 50 842 139 1028 56 958 l 204 842 b 258 904 204 890 228 904 b 308 856 294 904 308 882 b 249 803 308 825 293 803 l 172 803 l 172 686 z "},"⁴":{"ha":585,"x_min":0,"x_max":0,"o":"m 319 458 l 479 458 l 479 561 l 567 561 l 567 688 l 479 688 l 479 1014 l 319 1014 l 47 682 l 47 561 l 319 561 z m 214 688 l 319 826 l 319 688 z "},"⁵":{"ha":571,"x_min":0,"x_max":0,"o":"m 83 663 l 236 663 b 292 701 246 692 267 701 b 351 640 329 701 351 678 b 292 578 351 604 332 578 b 238 622 263 578 242 592 l 65 622 b 292 444 89 483 182 444 b 522 643 426 444 522 526 b 343 825 522 750 453 825 b 243 797 301 825 272 817 l 257 881 l 474 881 l 474 1014 l 132 1014 z "},"⁶":{"ha":535,"x_min":0,"x_max":0,"o":"m 350 1028 b 49 675 147 942 49 815 b 276 444 49 533 149 444 b 497 647 394 444 497 528 b 317 817 497 751 417 817 b 207 779 275 817 238 804 b 411 915 243 836 311 876 z m 275 715 b 346 643 314 715 346 688 b 275 567 346 599 317 567 b 204 642 236 567 204 597 b 275 715 204 685 238 715 z "},"⁷":{"ha":472,"x_min":0,"x_max":0,"o":"m 24 881 l 276 881 b 93 458 176 775 103 610 l 263 458 b 456 890 275 663 325 769 l 456 1014 l 24 1014 z "},"⁸":{"ha":581,"x_min":0,"x_max":0,"o":"m 290 444 b 518 614 433 444 518 517 b 425 747 518 674 483 721 b 501 865 472 775 501 818 b 290 1026 501 957 422 1026 b 81 865 158 1026 81 957 b 157 747 81 818 108 775 b 63 614 97 721 63 674 b 290 444 63 517 147 444 z m 290 797 b 238 854 251 797 238 821 b 290 913 238 888 256 913 b 343 854 325 913 343 888 b 290 797 343 821 325 797 z m 290 558 b 226 626 249 558 226 588 b 290 692 226 664 247 692 b 354 626 333 692 354 664 b 290 558 354 588 333 558 z "},"⁹":{"ha":535,"x_min":0,"x_max":0,"o":"m 185 444 b 486 797 388 531 486 657 b 258 1028 486 939 386 1028 b 38 825 140 1028 38 944 b 218 656 38 721 118 656 b 328 693 260 656 297 668 b 124 557 292 636 224 596 z m 260 757 b 189 829 221 757 189 785 b 260 906 189 874 218 906 b 331 831 299 906 331 875 b 260 757 331 788 297 757 z "},"+":{"ha":688,"x_min":0,"x_max":0,"o":"m 42 375 l 267 375 l 267 151 l 419 151 l 419 375 l 646 375 l 646 528 l 419 528 l 419 754 l 267 754 l 267 528 l 42 528 z "},"−":{"ha":688,"x_min":0,"x_max":0,"o":"m 42 375 l 646 375 l 646 528 l 42 528 z "},"×":{"ha":688,"x_min":0,"x_max":0,"o":"m 64 626 l 236 454 l 61 279 l 169 172 l 344 346 l 518 172 l 625 279 l 451 453 l 625 626 l 517 735 l 343 561 l 171 733 z "},"÷":{"ha":688,"x_min":0,"x_max":0,"o":"m 343 596 b 460 713 407 596 460 649 b 343 828 460 776 407 828 b 226 713 279 828 226 776 b 343 596 226 649 279 596 z m 42 375 l 646 375 l 646 528 l 42 528 z m 343 75 b 460 192 407 75 460 128 b 343 307 460 256 407 307 b 226 192 279 307 226 256 b 343 75 226 128 279 75 z "},"=":{"ha":688,"x_min":0,"x_max":0,"o":"m 42 500 l 646 500 l 646 653 l 42 653 z m 42 222 l 646 222 l 646 375 l 42 375 z "},"¬":{"ha":688,"x_min":0,"x_max":0,"o":"m 42 458 l 486 458 l 486 304 l 646 304 l 646 611 l 42 611 z "},"~":{"ha":688,"x_min":0,"x_max":0,"o":"m 661 586 l 497 586 b 508 518 506 560 508 540 b 461 468 508 485 489 468 b 204 593 396 468 322 593 b 13 369 89 593 13 508 b 18 299 13 347 14 324 l 182 299 b 171 367 174 325 171 344 b 218 417 171 400 190 417 b 483 292 285 417 365 292 b 668 511 597 292 668 374 b 661 586 668 535 665 560 z "},"<":{"ha":688,"x_min":0,"x_max":0,"o":"m 618 128 l 618 317 l 275 453 l 618 586 l 618 775 l 60 532 l 60 371 z "},">":{"ha":688,"x_min":0,"x_max":0,"o":"m 69 126 l 628 369 l 628 531 l 69 774 l 69 585 l 413 449 l 69 315 z "},"±":{"ha":688,"x_min":0,"x_max":0,"o":"m 42 90 l 646 90 l 646 243 l 419 243 l 419 375 l 646 375 l 646 528 l 419 528 l 419 754 l 267 754 l 267 528 l 42 528 l 42 375 l 267 375 l 267 243 l 42 243 z "},"^":{"ha":646,"x_min":0,"x_max":0,"o":"m 635 481 l 400 944 l 244 944 l 10 481 l 207 481 l 319 722 l 431 481 z "},"≠":{"ha":688,"x_min":0,"x_max":0,"o":"m 97 35 l 256 35 l 338 222 l 646 222 l 646 375 l 404 375 l 458 500 l 646 500 l 646 653 l 525 653 l 590 804 l 432 804 l 367 653 l 42 653 l 42 500 l 300 500 l 246 375 l 42 375 l 42 222 l 179 222 z "},"≈":{"ha":688,"x_min":0,"x_max":0,"o":"m 472 451 b 647 663 569 451 647 501 l 497 663 b 453 596 503 610 483 596 b 217 683 394 596 315 683 b 40 472 118 683 40 633 l 190 472 b 235 539 185 525 207 539 b 472 451 293 539 374 451 z m 479 181 b 647 392 572 181 647 231 l 497 392 b 453 325 503 339 483 325 b 217 413 394 325 315 413 b 40 201 118 413 40 363 l 190 201 b 235 268 185 254 207 268 b 479 181 294 268 378 181 z "},"≤":{"ha":688,"x_min":0,"x_max":0,"o":"m 49 97 l 639 97 l 639 379 l 290 488 l 639 593 l 639 768 l 53 560 l 53 413 l 529 243 l 49 243 z "},"≥":{"ha":688,"x_min":0,"x_max":0,"o":"m 639 97 l 639 243 l 158 243 l 635 413 l 635 560 l 49 768 l 49 593 l 397 488 l 49 379 l 49 97 z "},"∞":{"ha":840,"x_min":0,"x_max":0,"o":"m 794 442 b 589 682 794 593 697 682 b 419 568 515 682 453 639 b 251 682 388 639 325 682 b 46 442 143 682 46 593 b 251 201 46 290 143 201 b 421 315 325 201 388 244 b 589 201 453 244 515 201 b 794 442 697 201 794 290 z m 496 442 b 571 517 496 494 528 517 b 646 442 614 517 646 493 b 571 367 646 390 614 367 b 496 442 528 367 496 390 z m 344 442 b 269 367 344 390 313 367 b 194 442 226 367 194 390 b 269 517 194 493 226 517 b 344 442 313 517 344 494 z "},"◊":{"ha":722,"x_min":0,"x_max":0,"o":"m 694 422 l 467 844 l 256 844 l 28 422 l 256 0 l 467 0 z m 246 422 l 358 664 l 469 422 l 358 181 z "},"√":{"ha":871,"x_min":0,"x_max":0,"o":"m 535 875 l 350 203 l 261 529 l 46 529 l 224 0 l 469 0 l 688 694 l 872 694 l 872 875 z "},"∫":{"ha":661,"x_min":0,"x_max":0,"o":"m 175 156 b 57 32 165 60 138 32 b -35 46 25 32 -7 38 l -35 -135 b 81 -153 -8 -146 28 -153 b 386 136 257 -153 364 -69 l 435 588 b 551 711 444 682 474 711 b 644 701 585 711 617 706 l 644 882 b 542 896 621 890 585 896 b 222 607 349 896 242 799 z "},"∂":{"ha":850,"x_min":0,"x_max":0,"o":"m 383 -21 b 771 404 597 -21 771 153 b 451 944 771 590 651 793 l 269 875 b 567 568 438 739 521 654 b 418 608 529 594 481 608 b 63 269 218 608 63 463 b 383 -21 63 94 204 -21 z m 388 149 b 274 269 317 149 274 194 b 433 439 274 367 342 439 b 557 319 508 439 557 392 b 388 149 557 226 481 149 z "},"∏":{"ha":910,"x_min":0,"x_max":0,"o":"m 153 -139 l 368 -139 l 368 694 l 542 694 l 542 -139 l 757 -139 l 757 694 l 868 694 l 868 875 l 42 875 l 42 694 l 153 694 z "},"π":{"ha":890,"x_min":0,"x_max":0,"o":"m 150 0 l 365 0 l 365 431 l 525 431 l 525 0 l 740 0 l 740 431 l 851 431 l 851 611 l 39 611 l 39 431 l 150 431 z "},"μ":{"ha":719,"x_min":0,"x_max":0,"o":"m 53 -243 l 264 -243 l 264 -143 l 260 -21 b 271 -21 264 -21 267 -21 b 443 79 338 -21 403 13 l 443 0 l 657 0 l 657 611 l 443 611 l 443 301 b 354 160 443 203 404 160 b 267 283 301 160 267 200 l 267 611 l 53 611 z "},"∑":{"ha":694,"x_min":0,"x_max":0,"o":"m 568 431 l 515 501 l 451 571 l 544 588 l 628 615 l 581 761 l 497 733 l 411 693 l 424 786 l 424 875 l 271 875 l 271 786 l 283 693 l 197 733 l 114 761 l 67 615 l 150 588 l 243 571 l 179 501 l 126 431 l 250 340 l 301 413 l 347 496 l 393 413 l 444 340 z "},"Ꞷ":{"ha":694,"x_min":0,"x_max":0,"o":"m 568 431 l 515 501 l 451 571 l 544 588 l 628 615 l 581 761 l 497 733 l 411 693 l 424 786 l 424 875 l 271 875 l 271 786 l 283 693 l 197 733 l 114 761 l 67 615 l 150 588 l 243 571 l 179 501 l 126 431 l 250 340 l 301 413 l 347 496 l 393 413 l 444 340 z "},"Ω":{"ha":694,"x_min":0,"x_max":0,"o":"m 568 431 l 515 501 l 451 571 l 544 588 l 628 615 l 581 761 l 497 733 l 411 693 l 424 786 l 424 875 l 271 875 l 271 786 l 283 693 l 197 733 l 114 761 l 67 615 l 150 588 l 243 571 l 179 501 l 126 431 l 250 340 l 301 413 l 347 496 l 393 413 l 444 340 z "},"∆":{"ha":925,"x_min":0,"x_max":0,"o":"m 593 875 l 329 875 l 14 0 l 911 0 z m 299 174 l 460 661 l 621 174 z "},"Δ":{"ha":925,"x_min":0,"x_max":0,"o":"m 593 875 l 329 875 l 14 0 l 911 0 z m 299 174 l 460 661 l 621 174 z "},"ℓ":{"ha":638,"x_min":0,"x_max":0,"o":"m 582 251 l 464 271 b 357 104 444 167 410 104 b 288 275 311 104 292 154 b 596 740 478 426 596 576 b 442 896 596 842 542 896 b 156 332 274 896 156 661 b 156 307 156 324 156 315 b 28 221 117 279 74 250 l 78 124 b 165 183 108 144 138 164 b 356 -21 189 44 250 -21 b 582 251 481 -21 544 76 z m 458 721 b 289 417 458 618 394 517 b 425 778 300 629 354 778 b 458 721 449 778 458 760 z "},"℮":{"ha":796,"x_min":0,"x_max":0,"o":"m 739 194 l 657 194 b 403 44 604 89 501 44 b 236 103 343 44 283 61 l 236 340 l 754 340 b 401 710 754 572 601 710 b 42 347 183 710 42 536 b 403 -14 42 158 190 -14 b 739 194 524 -14 650 43 z m 236 392 l 236 597 b 401 651 281 631 336 651 b 568 597 467 651 518 633 l 568 392 z "}}}
